<mxfile host="65bd71144e" scale="5" border="0">
    <diagram id="ZBleZre1r7KAgKdAZK7f" name="第 1 页">
        <mxGraphModel dx="1297" dy="1450" grid="1" gridSize="10" guides="1" tooltips="1" connect="1" arrows="1" fold="1" page="1" pageScale="1" pageWidth="827" pageHeight="1169" background="#ffffff" math="0" shadow="0">
            <root>
                <mxCell id="0"/>
                <mxCell id="1" parent="0"/>
                <mxCell id="58" style="edgeStyle=none;html=1;fontSize=17;strokeWidth=3;fillColor=#f5f5f5;strokeColor=#666666;dashed=1;entryX=0.5;entryY=0;entryDx=0;entryDy=0;" parent="1" source="56" target="359" edge="1">
                    <mxGeometry relative="1" as="geometry">
                        <mxPoint x="445.0000000000002" y="800" as="targetPoint"/>
                    </mxGeometry>
                </mxCell>
                <mxCell id="56" value="&lt;font face=&quot;Georgia&quot;&gt;&lt;span style=&quot;font-size: 18px;&quot;&gt;&lt;b&gt;？？？&lt;/b&gt;&lt;/span&gt;&lt;/font&gt;" style="rounded=0;whiteSpace=wrap;html=1;strokeWidth=4;fillColor=#f5f5f5;strokeColor=#666666;fontColor=#333333;" parent="1" vertex="1">
                    <mxGeometry x="360" y="260" width="170" height="70" as="geometry"/>
                </mxCell>
                <mxCell id="103" value="" style="endArrow=none;html=1;strokeWidth=4;rounded=0;curved=0;fillColor=#f8cecc;strokeColor=#b85450;" parent="1" edge="1">
                    <mxGeometry width="50" height="50" relative="1" as="geometry">
                        <mxPoint x="340" y="740" as="sourcePoint"/>
                        <mxPoint x="380" y="720" as="targetPoint"/>
                        <Array as="points">
                            <mxPoint x="340" y="720"/>
                        </Array>
                    </mxGeometry>
                </mxCell>
                <mxCell id="104" value="" style="endArrow=none;html=1;strokeWidth=4;rounded=0;curved=0;fillColor=#f8cecc;strokeColor=#b85450;" parent="1" edge="1">
                    <mxGeometry width="50" height="50" relative="1" as="geometry">
                        <mxPoint x="340" y="740" as="sourcePoint"/>
                        <mxPoint x="550" y="740" as="targetPoint"/>
                        <Array as="points">
                            <mxPoint x="340" y="760"/>
                            <mxPoint x="550" y="760"/>
                        </Array>
                    </mxGeometry>
                </mxCell>
                <mxCell id="106" value="&lt;b&gt;&lt;font style=&quot;font-size: 18px;&quot; face=&quot;Georgia&quot;&gt;GDecoder&lt;/font&gt;&lt;/b&gt;" style="rounded=0;whiteSpace=wrap;html=1;strokeWidth=4;fillColor=#f8cecc;strokeColor=#b85450;" parent="1" vertex="1">
                    <mxGeometry x="380" y="660" width="130" height="70" as="geometry"/>
                </mxCell>
                <mxCell id="107" value="&lt;b&gt;&lt;font face=&quot;Georgia&quot;&gt;HPA&lt;/font&gt;&lt;/b&gt;" style="text;html=1;align=center;verticalAlign=middle;resizable=0;points=[];autosize=1;strokeColor=none;fillColor=none;" parent="1" vertex="1">
                    <mxGeometry x="369" y="700" width="50" height="30" as="geometry"/>
                </mxCell>
                <mxCell id="108" value="&lt;font face=&quot;Georgia&quot;&gt;&lt;b&gt;DPA&lt;/b&gt;&lt;/font&gt;" style="text;html=1;align=center;verticalAlign=middle;resizable=0;points=[];autosize=1;strokeColor=none;fillColor=none;" parent="1" vertex="1">
                    <mxGeometry x="470" y="700" width="50" height="30" as="geometry"/>
                </mxCell>
                <mxCell id="109" value="" style="endArrow=none;html=1;strokeWidth=4;rounded=0;curved=0;exitX=1.014;exitY=0.85;exitDx=0;exitDy=0;exitPerimeter=0;fillColor=#f8cecc;strokeColor=#b85450;" parent="1" source="106" edge="1">
                    <mxGeometry width="50" height="50" relative="1" as="geometry">
                        <mxPoint x="530" y="720" as="sourcePoint"/>
                        <mxPoint x="550" y="740" as="targetPoint"/>
                        <Array as="points">
                            <mxPoint x="550" y="720"/>
                        </Array>
                    </mxGeometry>
                </mxCell>
                <mxCell id="126" style="edgeStyle=none;html=1;startArrow=none;startFill=0;endArrow=none;endFill=0;strokeWidth=6;fillColor=#f8cecc;strokeColor=#b85450;" parent="1" edge="1">
                    <mxGeometry relative="1" as="geometry">
                        <mxPoint x="420" y="630" as="targetPoint"/>
                        <mxPoint x="530" y="650" as="sourcePoint"/>
                        <Array as="points"/>
                    </mxGeometry>
                </mxCell>
                <mxCell id="112" value="&lt;b&gt;&lt;font face=&quot;Georgia&quot;&gt;ERROR&lt;/font&gt;&lt;/b&gt;" style="text;html=1;align=center;verticalAlign=middle;resizable=0;points=[];autosize=1;strokeColor=none;fillColor=none;" parent="1" vertex="1">
                    <mxGeometry x="450" y="660" width="70" height="30" as="geometry"/>
                </mxCell>
                <mxCell id="113" value="" style="endArrow=classicThin;html=1;strokeWidth=8;fillColor=#f8cecc;strokeColor=#b85450;endFill=1;startSize=2;endSize=0;" parent="1" edge="1">
                    <mxGeometry width="50" height="50" relative="1" as="geometry">
                        <mxPoint x="550" y="739.81" as="sourcePoint"/>
                        <mxPoint x="640" y="740" as="targetPoint"/>
                    </mxGeometry>
                </mxCell>
                <mxCell id="120" value="" style="endArrow=none;html=1;strokeWidth=8;fillColor=#f8cecc;strokeColor=#b85450;startArrow=classicThin;startFill=1;endSize=0;startSize=0;" parent="1" edge="1">
                    <mxGeometry width="50" height="50" relative="1" as="geometry">
                        <mxPoint x="240" y="630" as="sourcePoint"/>
                        <mxPoint x="640" y="630" as="targetPoint"/>
                    </mxGeometry>
                </mxCell>
                <mxCell id="129" value="&lt;b&gt;&lt;font face=&quot;Georgia&quot;&gt;+UIO&lt;/font&gt;&lt;/b&gt;" style="rounded=0;whiteSpace=wrap;html=1;" parent="1" vertex="1">
                    <mxGeometry x="530" y="650" width="40" height="20" as="geometry"/>
                </mxCell>
                <mxCell id="131" style="edgeStyle=none;html=1;entryX=0.857;entryY=0.333;entryDx=0;entryDy=0;entryPerimeter=0;startArrow=classic;startFill=1;endArrow=none;endFill=0;strokeWidth=2;fillColor=#f8cecc;strokeColor=#b85450;" parent="1" source="129" target="112" edge="1">
                    <mxGeometry relative="1" as="geometry"/>
                </mxCell>
                <mxCell id="132" value="&lt;font face=&quot;Georgia&quot;&gt;&lt;b&gt;UIORSP&lt;/b&gt;&lt;/font&gt;" style="text;html=1;align=center;verticalAlign=middle;resizable=0;points=[];autosize=1;strokeColor=none;fillColor=none;" parent="1" vertex="1">
                    <mxGeometry x="310.5" y="630" width="70" height="30" as="geometry"/>
                </mxCell>
                <mxCell id="318" style="edgeStyle=none;html=1;fontSize=17;strokeWidth=3;fillColor=#f5f5f5;strokeColor=#666666;dashed=1;entryX=0.5;entryY=0;entryDx=0;entryDy=0;" parent="1" target="106" edge="1">
                    <mxGeometry relative="1" as="geometry">
                        <mxPoint x="444.55" y="800" as="targetPoint"/>
                        <mxPoint x="444.55" y="330" as="sourcePoint"/>
                    </mxGeometry>
                </mxCell>
                <mxCell id="338" value="" style="endArrow=classicThin;html=1;strokeWidth=8;fillColor=#f8cecc;strokeColor=#b85450;endFill=1;startSize=2;endSize=0;" parent="1" edge="1">
                    <mxGeometry width="50" height="50" relative="1" as="geometry">
                        <mxPoint x="240" y="740" as="sourcePoint"/>
                        <mxPoint x="339" y="740.07" as="targetPoint"/>
                    </mxGeometry>
                </mxCell>
                <mxCell id="340" value="" style="endArrow=none;html=1;strokeWidth=4;rounded=0;curved=0;fillColor=#f8cecc;strokeColor=#b85450;" parent="1" edge="1">
                    <mxGeometry width="50" height="50" relative="1" as="geometry">
                        <mxPoint x="340" y="570" as="sourcePoint"/>
                        <mxPoint x="380" y="550" as="targetPoint"/>
                        <Array as="points">
                            <mxPoint x="340" y="550"/>
                        </Array>
                    </mxGeometry>
                </mxCell>
                <mxCell id="341" value="" style="endArrow=none;html=1;strokeWidth=4;rounded=0;curved=0;fillColor=#f8cecc;strokeColor=#b85450;" parent="1" edge="1">
                    <mxGeometry width="50" height="50" relative="1" as="geometry">
                        <mxPoint x="340" y="570" as="sourcePoint"/>
                        <mxPoint x="550" y="570" as="targetPoint"/>
                        <Array as="points">
                            <mxPoint x="340" y="590"/>
                            <mxPoint x="550" y="590"/>
                        </Array>
                    </mxGeometry>
                </mxCell>
                <mxCell id="342" value="&lt;b&gt;&lt;font face=&quot;Georgia&quot; style=&quot;font-size: 18px;&quot;&gt;GDecoder&lt;/font&gt;&lt;/b&gt;" style="rounded=0;whiteSpace=wrap;html=1;strokeWidth=4;fillColor=#f8cecc;strokeColor=#b85450;" parent="1" vertex="1">
                    <mxGeometry x="380" y="490" width="130" height="70" as="geometry"/>
                </mxCell>
                <mxCell id="343" value="&lt;b&gt;&lt;font face=&quot;Georgia&quot;&gt;HPA&lt;/font&gt;&lt;/b&gt;" style="text;html=1;align=center;verticalAlign=middle;resizable=0;points=[];autosize=1;strokeColor=none;fillColor=none;" parent="1" vertex="1">
                    <mxGeometry x="369" y="530" width="50" height="30" as="geometry"/>
                </mxCell>
                <mxCell id="344" value="&lt;font face=&quot;Georgia&quot;&gt;&lt;b&gt;DPA&lt;/b&gt;&lt;/font&gt;" style="text;html=1;align=center;verticalAlign=middle;resizable=0;points=[];autosize=1;strokeColor=none;fillColor=none;" parent="1" vertex="1">
                    <mxGeometry x="470" y="530" width="50" height="30" as="geometry"/>
                </mxCell>
                <mxCell id="345" value="" style="endArrow=none;html=1;strokeWidth=4;rounded=0;curved=0;exitX=1.014;exitY=0.85;exitDx=0;exitDy=0;exitPerimeter=0;fillColor=#f8cecc;strokeColor=#b85450;" parent="1" source="342" edge="1">
                    <mxGeometry width="50" height="50" relative="1" as="geometry">
                        <mxPoint x="530" y="550" as="sourcePoint"/>
                        <mxPoint x="550" y="570" as="targetPoint"/>
                        <Array as="points">
                            <mxPoint x="550" y="550"/>
                        </Array>
                    </mxGeometry>
                </mxCell>
                <mxCell id="346" style="edgeStyle=none;html=1;startArrow=none;startFill=0;endArrow=none;endFill=0;strokeWidth=6;fillColor=#f8cecc;strokeColor=#b85450;" parent="1" edge="1">
                    <mxGeometry relative="1" as="geometry">
                        <mxPoint x="420" y="460" as="targetPoint"/>
                        <mxPoint x="530" y="480" as="sourcePoint"/>
                        <Array as="points"/>
                    </mxGeometry>
                </mxCell>
                <mxCell id="347" value="&lt;b&gt;&lt;font face=&quot;Georgia&quot;&gt;ERROR&lt;/font&gt;&lt;/b&gt;" style="text;html=1;align=center;verticalAlign=middle;resizable=0;points=[];autosize=1;strokeColor=none;fillColor=none;" parent="1" vertex="1">
                    <mxGeometry x="450" y="490" width="70" height="30" as="geometry"/>
                </mxCell>
                <mxCell id="348" value="" style="endArrow=classicThin;html=1;strokeWidth=8;fillColor=#f8cecc;strokeColor=#b85450;endFill=1;startSize=2;endSize=0;" parent="1" edge="1">
                    <mxGeometry width="50" height="50" relative="1" as="geometry">
                        <mxPoint x="550" y="569.81" as="sourcePoint"/>
                        <mxPoint x="640" y="570" as="targetPoint"/>
                    </mxGeometry>
                </mxCell>
                <mxCell id="349" value="" style="endArrow=none;html=1;strokeWidth=8;fillColor=#f8cecc;strokeColor=#b85450;startArrow=classicThin;startFill=1;endSize=0;startSize=0;" parent="1" edge="1">
                    <mxGeometry width="50" height="50" relative="1" as="geometry">
                        <mxPoint x="240" y="460" as="sourcePoint"/>
                        <mxPoint x="640" y="460" as="targetPoint"/>
                    </mxGeometry>
                </mxCell>
                <mxCell id="350" value="&lt;b&gt;&lt;font face=&quot;Georgia&quot;&gt;+&lt;/font&gt;&lt;/b&gt;&lt;b style=&quot;text-wrap-mode: nowrap;&quot;&gt;&lt;font face=&quot;Georgia&quot;&gt;Req/RwD&lt;/font&gt;&lt;/b&gt;" style="rounded=0;whiteSpace=wrap;html=1;" parent="1" vertex="1">
                    <mxGeometry x="530" y="480" width="80" height="20" as="geometry"/>
                </mxCell>
                <mxCell id="351" style="edgeStyle=none;html=1;entryX=0.857;entryY=0.333;entryDx=0;entryDy=0;entryPerimeter=0;startArrow=classic;startFill=1;endArrow=none;endFill=0;strokeWidth=2;fillColor=#f8cecc;strokeColor=#b85450;" parent="1" source="350" target="347" edge="1">
                    <mxGeometry relative="1" as="geometry"/>
                </mxCell>
                <mxCell id="352" value="&lt;font face=&quot;Georgia&quot;&gt;&lt;b&gt;DRS/NDR&lt;/b&gt;&lt;/font&gt;" style="text;html=1;align=center;verticalAlign=middle;resizable=0;points=[];autosize=1;strokeColor=none;fillColor=none;" parent="1" vertex="1">
                    <mxGeometry x="290" y="460" width="90" height="30" as="geometry"/>
                </mxCell>
                <mxCell id="354" value="&lt;b&gt;&lt;font face=&quot;Georgia&quot;&gt;Req/RwD&lt;/font&gt;&lt;/b&gt;&lt;b style=&quot;&quot;&gt;&lt;font face=&quot;Georgia&quot;&gt;.address&lt;/font&gt;&lt;/b&gt;" style="text;html=1;align=center;verticalAlign=middle;resizable=0;points=[];autosize=1;strokeColor=none;fillColor=none;" parent="1" vertex="1">
                    <mxGeometry x="500" y="530" width="140" height="30" as="geometry"/>
                </mxCell>
                <mxCell id="355" value="" style="endArrow=classicThin;html=1;strokeWidth=8;fillColor=#f8cecc;strokeColor=#b85450;endFill=1;startSize=2;endSize=0;" parent="1" edge="1">
                    <mxGeometry width="50" height="50" relative="1" as="geometry">
                        <mxPoint x="240" y="570" as="sourcePoint"/>
                        <mxPoint x="339" y="569.82" as="targetPoint"/>
                    </mxGeometry>
                </mxCell>
                <mxCell id="356" style="edgeStyle=none;html=1;fontSize=17;strokeWidth=3;fillColor=#f5f5f5;strokeColor=#666666;dashed=1;" parent="1" edge="1">
                    <mxGeometry relative="1" as="geometry">
                        <mxPoint x="445" y="490" as="targetPoint"/>
                        <mxPoint x="444.5" y="330" as="sourcePoint"/>
                    </mxGeometry>
                </mxCell>
                <mxCell id="339" value="&lt;b&gt;&lt;font face=&quot;Georgia&quot;&gt;Req/RwD&lt;/font&gt;&lt;/b&gt;&lt;font face=&quot;Georgia&quot;&gt;&lt;b&gt;.others&lt;/b&gt;&lt;/font&gt;" style="text;html=1;align=center;verticalAlign=middle;resizable=0;points=[];autosize=1;strokeColor=none;fillColor=none;" parent="1" vertex="1">
                    <mxGeometry x="260" y="580" width="130" height="30" as="geometry"/>
                </mxCell>
                <mxCell id="353" value="&lt;b style=&quot;&quot;&gt;&lt;font face=&quot;Georgia&quot;&gt;Req/RwD.address&lt;/font&gt;&lt;/b&gt;" style="text;html=1;align=center;verticalAlign=middle;resizable=0;points=[];autosize=1;strokeColor=none;fillColor=none;" parent="1" vertex="1">
                    <mxGeometry x="250" y="530" width="140" height="30" as="geometry"/>
                </mxCell>
                <mxCell id="99" value="&lt;font face=&quot;Georgia&quot;&gt;&lt;b&gt;UIO.others&lt;/b&gt;&lt;/font&gt;" style="text;html=1;align=center;verticalAlign=middle;resizable=0;points=[];autosize=1;strokeColor=none;fillColor=none;" parent="1" vertex="1">
                    <mxGeometry x="295" y="750" width="90" height="30" as="geometry"/>
                </mxCell>
                <mxCell id="105" value="&lt;b style=&quot;&quot;&gt;&lt;font face=&quot;Georgia&quot;&gt;UIO.address&lt;/font&gt;&lt;/b&gt;" style="text;html=1;align=center;verticalAlign=middle;resizable=0;points=[];autosize=1;strokeColor=none;fillColor=none;" parent="1" vertex="1">
                    <mxGeometry x="285" y="700" width="100" height="30" as="geometry"/>
                </mxCell>
                <mxCell id="316" value="&lt;b style=&quot;&quot;&gt;&lt;font face=&quot;Georgia&quot;&gt;UIO.address&lt;/font&gt;&lt;/b&gt;" style="text;html=1;align=center;verticalAlign=middle;resizable=0;points=[];autosize=1;strokeColor=none;fillColor=none;" parent="1" vertex="1">
                    <mxGeometry x="505" y="700" width="100" height="30" as="geometry"/>
                </mxCell>
                <mxCell id="357" value="" style="endArrow=none;html=1;strokeWidth=4;rounded=0;curved=0;fillColor=#f8cecc;strokeColor=#b85450;" parent="1" edge="1">
                    <mxGeometry width="50" height="50" relative="1" as="geometry">
                        <mxPoint x="340.5" y="910" as="sourcePoint"/>
                        <mxPoint x="380.5" y="890" as="targetPoint"/>
                        <Array as="points">
                            <mxPoint x="340.5" y="890"/>
                        </Array>
                    </mxGeometry>
                </mxCell>
                <mxCell id="358" value="" style="endArrow=none;html=1;strokeWidth=4;rounded=0;curved=0;fillColor=#f8cecc;strokeColor=#b85450;" parent="1" edge="1">
                    <mxGeometry width="50" height="50" relative="1" as="geometry">
                        <mxPoint x="340.5" y="910" as="sourcePoint"/>
                        <mxPoint x="550" y="910" as="targetPoint"/>
                        <Array as="points">
                            <mxPoint x="340.5" y="930"/>
                            <mxPoint x="550" y="930"/>
                        </Array>
                    </mxGeometry>
                </mxCell>
                <mxCell id="359" value="&lt;b&gt;&lt;font style=&quot;font-size: 18px;&quot; face=&quot;Georgia&quot;&gt;GDecoder&lt;/font&gt;&lt;/b&gt;" style="rounded=0;whiteSpace=wrap;html=1;strokeWidth=4;fillColor=#f8cecc;strokeColor=#b85450;" parent="1" vertex="1">
                    <mxGeometry x="380.5" y="830" width="130" height="70" as="geometry"/>
                </mxCell>
                <mxCell id="360" value="&lt;b&gt;&lt;font face=&quot;Georgia&quot;&gt;HPA&lt;/font&gt;&lt;/b&gt;" style="text;html=1;align=center;verticalAlign=middle;resizable=0;points=[];autosize=1;strokeColor=none;fillColor=none;" parent="1" vertex="1">
                    <mxGeometry x="369.5" y="870" width="50" height="30" as="geometry"/>
                </mxCell>
                <mxCell id="361" value="&lt;font face=&quot;Georgia&quot;&gt;&lt;b&gt;DPA&lt;/b&gt;&lt;/font&gt;" style="text;html=1;align=center;verticalAlign=middle;resizable=0;points=[];autosize=1;strokeColor=none;fillColor=none;" parent="1" vertex="1">
                    <mxGeometry x="470.5" y="870" width="50" height="30" as="geometry"/>
                </mxCell>
                <mxCell id="362" value="" style="endArrow=none;html=1;strokeWidth=4;rounded=0;curved=0;exitX=1.014;exitY=0.85;exitDx=0;exitDy=0;exitPerimeter=0;fillColor=#f8cecc;strokeColor=#b85450;" parent="1" source="359" edge="1">
                    <mxGeometry width="50" height="50" relative="1" as="geometry">
                        <mxPoint x="530.5" y="890" as="sourcePoint"/>
                        <mxPoint x="550" y="910" as="targetPoint"/>
                        <Array as="points">
                            <mxPoint x="550" y="890"/>
                        </Array>
                    </mxGeometry>
                </mxCell>
                <mxCell id="364" value="&lt;b&gt;&lt;font face=&quot;Georgia&quot;&gt;DPID_6b&lt;/font&gt;&lt;/b&gt;" style="text;html=1;align=center;verticalAlign=middle;resizable=0;points=[];autosize=1;strokeColor=none;fillColor=none;" parent="1" vertex="1">
                    <mxGeometry x="440" y="830" width="80" height="30" as="geometry"/>
                </mxCell>
                <mxCell id="365" value="" style="endArrow=none;html=1;strokeWidth=8;fillColor=#f8cecc;strokeColor=#b85450;endFill=0;startSize=2;endSize=0;startArrow=classicThin;startFill=1;" parent="1" edge="1">
                    <mxGeometry width="50" height="50" relative="1" as="geometry">
                        <mxPoint x="550" y="910" as="sourcePoint"/>
                        <mxPoint x="640" y="910" as="targetPoint"/>
                    </mxGeometry>
                </mxCell>
                <mxCell id="366" value="" style="endArrow=classicThin;html=1;strokeWidth=8;fillColor=#f8cecc;strokeColor=#b85450;startArrow=none;startFill=0;endSize=0;startSize=0;endFill=1;" parent="1" edge="1">
                    <mxGeometry width="50" height="50" relative="1" as="geometry">
                        <mxPoint x="240" y="800" as="sourcePoint"/>
                        <mxPoint x="640" y="800" as="targetPoint"/>
                    </mxGeometry>
                </mxCell>
                <mxCell id="369" value="&lt;font face=&quot;Georgia&quot;&gt;&lt;b&gt;BIRsp&lt;/b&gt;&lt;/font&gt;" style="text;html=1;align=center;verticalAlign=middle;resizable=0;points=[];autosize=1;strokeColor=none;fillColor=none;" parent="1" vertex="1">
                    <mxGeometry x="325" y="800" width="60" height="30" as="geometry"/>
                </mxCell>
                <mxCell id="371" value="&lt;font face=&quot;Georgia&quot;&gt;&lt;b&gt;BISnp.others&lt;/b&gt;&lt;/font&gt;" style="text;html=1;align=center;verticalAlign=middle;resizable=0;points=[];autosize=1;strokeColor=none;fillColor=none;" parent="1" vertex="1">
                    <mxGeometry x="500" y="920" width="110" height="30" as="geometry"/>
                </mxCell>
                <mxCell id="372" value="&lt;b style=&quot;&quot;&gt;&lt;font face=&quot;Georgia&quot;&gt;BISnp.address&lt;/font&gt;&lt;/b&gt;" style="text;html=1;align=center;verticalAlign=middle;resizable=0;points=[];autosize=1;strokeColor=none;fillColor=none;" parent="1" vertex="1">
                    <mxGeometry x="275" y="870" width="110" height="30" as="geometry"/>
                </mxCell>
                <mxCell id="374" value="" style="endArrow=none;html=1;strokeWidth=8;fillColor=#f8cecc;strokeColor=#b85450;endFill=0;startSize=2;endSize=0;startArrow=classicThin;startFill=1;" parent="1" edge="1">
                    <mxGeometry width="50" height="50" relative="1" as="geometry">
                        <mxPoint x="240" y="910" as="sourcePoint"/>
                        <mxPoint x="340" y="910.19" as="targetPoint"/>
                    </mxGeometry>
                </mxCell>
                <mxCell id="375" value="" style="endArrow=none;html=1;strokeWidth=4;rounded=0;curved=0;exitX=1.014;exitY=0.85;exitDx=0;exitDy=0;exitPerimeter=0;fillColor=#f8cecc;strokeColor=#b85450;" parent="1" edge="1">
                    <mxGeometry width="50" height="50" relative="1" as="geometry">
                        <mxPoint x="511.5" y="845" as="sourcePoint"/>
                        <mxPoint x="550" y="890" as="targetPoint"/>
                        <Array as="points">
                            <mxPoint x="550" y="845"/>
                        </Array>
                    </mxGeometry>
                </mxCell>
                <mxCell id="376" value="&lt;b style=&quot;&quot;&gt;&lt;font face=&quot;Georgia&quot;&gt;BISnp.address&lt;/font&gt;&lt;/b&gt;" style="text;html=1;align=center;verticalAlign=middle;resizable=0;points=[];autosize=1;strokeColor=none;fillColor=none;" parent="1" vertex="1">
                    <mxGeometry x="505" y="870" width="110" height="30" as="geometry"/>
                </mxCell>
                <mxCell id="377" value="&lt;b style=&quot;&quot;&gt;&lt;font face=&quot;Georgia&quot;&gt;BISnp.DPID&lt;/font&gt;&lt;/b&gt;" style="text;html=1;align=center;verticalAlign=middle;resizable=0;points=[];autosize=1;strokeColor=none;fillColor=none;" parent="1" vertex="1">
                    <mxGeometry x="505" y="820" width="100" height="30" as="geometry"/>
                </mxCell>
                <mxCell id="380" style="edgeStyle=none;html=1;fontSize=17;strokeWidth=3;fillColor=#f5f5f5;strokeColor=#666666;dashed=1;entryX=0.5;entryY=0;entryDx=0;entryDy=0;" parent="1" source="381" target="422" edge="1">
                    <mxGeometry relative="1" as="geometry">
                        <mxPoint x="865.0000000000002" y="800" as="targetPoint"/>
                    </mxGeometry>
                </mxCell>
                <mxCell id="381" value="&lt;font face=&quot;Georgia&quot;&gt;&lt;span style=&quot;font-size: 18px;&quot;&gt;&lt;b&gt;？？？&lt;/b&gt;&lt;/span&gt;&lt;/font&gt;" style="rounded=0;whiteSpace=wrap;html=1;strokeWidth=4;fillColor=#f5f5f5;strokeColor=#666666;fontColor=#333333;" parent="1" vertex="1">
                    <mxGeometry x="780" y="260" width="170" height="70" as="geometry"/>
                </mxCell>
                <mxCell id="383" value="" style="endArrow=none;html=1;strokeWidth=4;rounded=0;curved=0;fillColor=#ffe6cc;strokeColor=#d79b00;" parent="1" edge="1">
                    <mxGeometry width="50" height="50" relative="1" as="geometry">
                        <mxPoint x="760" y="740" as="sourcePoint"/>
                        <mxPoint x="800" y="720" as="targetPoint"/>
                        <Array as="points">
                            <mxPoint x="760" y="720"/>
                        </Array>
                    </mxGeometry>
                </mxCell>
                <mxCell id="384" value="" style="endArrow=none;html=1;strokeWidth=4;rounded=0;curved=0;fillColor=#ffe6cc;strokeColor=#d79b00;" parent="1" edge="1">
                    <mxGeometry width="50" height="50" relative="1" as="geometry">
                        <mxPoint x="760" y="740" as="sourcePoint"/>
                        <mxPoint x="970" y="740" as="targetPoint"/>
                        <Array as="points">
                            <mxPoint x="760" y="760"/>
                            <mxPoint x="970" y="760"/>
                        </Array>
                    </mxGeometry>
                </mxCell>
                <mxCell id="385" value="&lt;font style=&quot;font-size: 14px;&quot; face=&quot;Georgia&quot;&gt;&lt;b&gt;HDM&lt;/b&gt;&lt;/font&gt;&lt;div&gt;&lt;font style=&quot;font-size: 14px;&quot; face=&quot;Georgia&quot;&gt;&lt;b&gt;Decoder&lt;/b&gt;&lt;/font&gt;&lt;/div&gt;" style="rounded=0;whiteSpace=wrap;html=1;strokeWidth=4;fillColor=#ffe6cc;strokeColor=#d79b00;" parent="1" vertex="1">
                    <mxGeometry x="800" y="660" width="130" height="70" as="geometry"/>
                </mxCell>
                <mxCell id="386" value="&lt;b&gt;&lt;font face=&quot;Georgia&quot;&gt;HPA&lt;/font&gt;&lt;/b&gt;" style="text;html=1;align=center;verticalAlign=middle;resizable=0;points=[];autosize=1;strokeColor=none;fillColor=none;" parent="1" vertex="1">
                    <mxGeometry x="789" y="700" width="50" height="30" as="geometry"/>
                </mxCell>
                <mxCell id="387" value="&lt;font face=&quot;Georgia&quot;&gt;&lt;b&gt;DPA&lt;/b&gt;&lt;/font&gt;" style="text;html=1;align=center;verticalAlign=middle;resizable=0;points=[];autosize=1;strokeColor=none;fillColor=none;" parent="1" vertex="1">
                    <mxGeometry x="890" y="700" width="50" height="30" as="geometry"/>
                </mxCell>
                <mxCell id="388" value="" style="endArrow=none;html=1;strokeWidth=4;rounded=0;curved=0;exitX=1.014;exitY=0.85;exitDx=0;exitDy=0;exitPerimeter=0;fillColor=#ffe6cc;strokeColor=#d79b00;" parent="1" source="385" edge="1">
                    <mxGeometry width="50" height="50" relative="1" as="geometry">
                        <mxPoint x="950" y="720" as="sourcePoint"/>
                        <mxPoint x="970" y="740" as="targetPoint"/>
                        <Array as="points">
                            <mxPoint x="970" y="720"/>
                        </Array>
                    </mxGeometry>
                </mxCell>
                <mxCell id="389" style="edgeStyle=none;html=1;startArrow=none;startFill=0;endArrow=none;endFill=0;strokeWidth=6;fillColor=#ffe6cc;strokeColor=#d79b00;" parent="1" edge="1">
                    <mxGeometry relative="1" as="geometry">
                        <mxPoint x="840" y="630" as="targetPoint"/>
                        <mxPoint x="950" y="650" as="sourcePoint"/>
                        <Array as="points"/>
                    </mxGeometry>
                </mxCell>
                <mxCell id="390" value="&lt;b&gt;&lt;font face=&quot;Georgia&quot;&gt;ERROR&lt;/font&gt;&lt;/b&gt;" style="text;html=1;align=center;verticalAlign=middle;resizable=0;points=[];autosize=1;strokeColor=none;fillColor=none;" parent="1" vertex="1">
                    <mxGeometry x="870" y="660" width="70" height="30" as="geometry"/>
                </mxCell>
                <mxCell id="391" value="" style="endArrow=classicThin;html=1;strokeWidth=8;fillColor=#ffe6cc;strokeColor=#d79b00;endFill=1;startSize=2;endSize=0;" parent="1" edge="1">
                    <mxGeometry width="50" height="50" relative="1" as="geometry">
                        <mxPoint x="970" y="739.81" as="sourcePoint"/>
                        <mxPoint x="1060" y="740" as="targetPoint"/>
                    </mxGeometry>
                </mxCell>
                <mxCell id="392" value="" style="endArrow=none;html=1;strokeWidth=8;fillColor=#ffe6cc;strokeColor=#d79b00;startArrow=classicThin;startFill=1;endSize=0;startSize=0;" parent="1" edge="1">
                    <mxGeometry width="50" height="50" relative="1" as="geometry">
                        <mxPoint x="660" y="630" as="sourcePoint"/>
                        <mxPoint x="1060" y="630" as="targetPoint"/>
                    </mxGeometry>
                </mxCell>
                <mxCell id="393" value="&lt;b&gt;&lt;font face=&quot;Georgia&quot;&gt;+UIO&lt;/font&gt;&lt;/b&gt;" style="rounded=0;whiteSpace=wrap;html=1;" parent="1" vertex="1">
                    <mxGeometry x="950" y="650" width="40" height="20" as="geometry"/>
                </mxCell>
                <mxCell id="394" style="edgeStyle=none;html=1;entryX=0.857;entryY=0.333;entryDx=0;entryDy=0;entryPerimeter=0;startArrow=classic;startFill=1;endArrow=none;endFill=0;strokeWidth=2;fillColor=#ffe6cc;strokeColor=#d79b00;" parent="1" source="393" target="390" edge="1">
                    <mxGeometry relative="1" as="geometry"/>
                </mxCell>
                <mxCell id="395" value="&lt;font face=&quot;Georgia&quot;&gt;&lt;b&gt;UIORSP&lt;/b&gt;&lt;/font&gt;" style="text;html=1;align=center;verticalAlign=middle;resizable=0;points=[];autosize=1;strokeColor=none;fillColor=none;" parent="1" vertex="1">
                    <mxGeometry x="735" y="630" width="70" height="30" as="geometry"/>
                </mxCell>
                <mxCell id="397" style="edgeStyle=none;html=1;fontSize=17;strokeWidth=3;fillColor=#f5f5f5;strokeColor=#666666;dashed=1;entryX=0.5;entryY=0;entryDx=0;entryDy=0;" parent="1" target="385" edge="1">
                    <mxGeometry relative="1" as="geometry">
                        <mxPoint x="864.55" y="800" as="targetPoint"/>
                        <mxPoint x="864.55" y="330" as="sourcePoint"/>
                    </mxGeometry>
                </mxCell>
                <mxCell id="398" value="" style="endArrow=classicThin;html=1;strokeWidth=8;fillColor=#ffe6cc;strokeColor=#d79b00;endFill=1;startSize=2;endSize=0;" parent="1" edge="1">
                    <mxGeometry width="50" height="50" relative="1" as="geometry">
                        <mxPoint x="660" y="740" as="sourcePoint"/>
                        <mxPoint x="759" y="740.07" as="targetPoint"/>
                    </mxGeometry>
                </mxCell>
                <mxCell id="414" style="edgeStyle=none;html=1;fontSize=17;strokeWidth=3;fillColor=#f5f5f5;strokeColor=#666666;dashed=1;" parent="1" edge="1">
                    <mxGeometry relative="1" as="geometry">
                        <mxPoint x="865" y="490" as="targetPoint"/>
                        <mxPoint x="864.5" y="330" as="sourcePoint"/>
                    </mxGeometry>
                </mxCell>
                <mxCell id="417" value="&lt;font face=&quot;Georgia&quot;&gt;&lt;b&gt;UIO.others&lt;/b&gt;&lt;/font&gt;" style="text;html=1;align=center;verticalAlign=middle;resizable=0;points=[];autosize=1;strokeColor=none;fillColor=none;" parent="1" vertex="1">
                    <mxGeometry x="715.5" y="750" width="90" height="30" as="geometry"/>
                </mxCell>
                <mxCell id="419" value="&lt;b style=&quot;&quot;&gt;&lt;font face=&quot;Georgia&quot;&gt;UIO.address&lt;/font&gt;&lt;/b&gt;" style="text;html=1;align=center;verticalAlign=middle;resizable=0;points=[];autosize=1;strokeColor=none;fillColor=none;" parent="1" vertex="1">
                    <mxGeometry x="925" y="700" width="100" height="30" as="geometry"/>
                </mxCell>
                <mxCell id="420" value="" style="endArrow=none;html=1;strokeWidth=4;rounded=0;curved=0;fillColor=#ffe6cc;strokeColor=#d79b00;" parent="1" edge="1">
                    <mxGeometry width="50" height="50" relative="1" as="geometry">
                        <mxPoint x="760.5" y="910" as="sourcePoint"/>
                        <mxPoint x="800.5" y="890" as="targetPoint"/>
                        <Array as="points">
                            <mxPoint x="760.5" y="890"/>
                        </Array>
                    </mxGeometry>
                </mxCell>
                <mxCell id="421" value="" style="endArrow=none;html=1;strokeWidth=4;rounded=0;curved=0;fillColor=#ffe6cc;strokeColor=#d79b00;" parent="1" edge="1">
                    <mxGeometry width="50" height="50" relative="1" as="geometry">
                        <mxPoint x="760.5" y="910" as="sourcePoint"/>
                        <mxPoint x="970" y="910" as="targetPoint"/>
                        <Array as="points">
                            <mxPoint x="760.5" y="930"/>
                            <mxPoint x="970" y="930"/>
                        </Array>
                    </mxGeometry>
                </mxCell>
                <mxCell id="422" value="&lt;font style=&quot;font-size: 14px;&quot; face=&quot;Georgia&quot;&gt;&lt;b style=&quot;&quot;&gt;HDM&lt;/b&gt;&lt;/font&gt;&lt;div&gt;&lt;font style=&quot;font-size: 14px;&quot; face=&quot;Georgia&quot;&gt;&lt;b style=&quot;&quot;&gt;Decoder&lt;/b&gt;&lt;/font&gt;&lt;/div&gt;" style="rounded=0;whiteSpace=wrap;html=1;strokeWidth=4;fillColor=#ffe6cc;strokeColor=#d79b00;" parent="1" vertex="1">
                    <mxGeometry x="800.5" y="830" width="130" height="70" as="geometry"/>
                </mxCell>
                <mxCell id="423" value="&lt;b&gt;&lt;font face=&quot;Georgia&quot;&gt;HPA&lt;/font&gt;&lt;/b&gt;" style="text;html=1;align=center;verticalAlign=middle;resizable=0;points=[];autosize=1;strokeColor=none;fillColor=none;" parent="1" vertex="1">
                    <mxGeometry x="789.5" y="870" width="50" height="30" as="geometry"/>
                </mxCell>
                <mxCell id="424" value="&lt;font face=&quot;Georgia&quot;&gt;&lt;b&gt;DPA&lt;/b&gt;&lt;/font&gt;" style="text;html=1;align=center;verticalAlign=middle;resizable=0;points=[];autosize=1;strokeColor=none;fillColor=none;" parent="1" vertex="1">
                    <mxGeometry x="890.5" y="870" width="50" height="30" as="geometry"/>
                </mxCell>
                <mxCell id="425" value="" style="endArrow=none;html=1;strokeWidth=4;rounded=0;curved=0;exitX=1.014;exitY=0.85;exitDx=0;exitDy=0;exitPerimeter=0;fillColor=#ffe6cc;strokeColor=#d79b00;" parent="1" source="422" edge="1">
                    <mxGeometry width="50" height="50" relative="1" as="geometry">
                        <mxPoint x="950.5" y="890" as="sourcePoint"/>
                        <mxPoint x="970" y="910" as="targetPoint"/>
                        <Array as="points">
                            <mxPoint x="970" y="890"/>
                        </Array>
                    </mxGeometry>
                </mxCell>
                <mxCell id="426" value="&lt;b&gt;&lt;font face=&quot;Georgia&quot;&gt;LD_ID&lt;/font&gt;&lt;/b&gt;" style="text;html=1;align=center;verticalAlign=middle;resizable=0;points=[];autosize=1;strokeColor=none;fillColor=none;" parent="1" vertex="1">
                    <mxGeometry x="870.5" y="830" width="70" height="30" as="geometry"/>
                </mxCell>
                <mxCell id="427" value="" style="endArrow=none;html=1;strokeWidth=8;fillColor=#ffe6cc;strokeColor=#d79b00;endFill=0;startSize=2;endSize=0;startArrow=classicThin;startFill=1;" parent="1" edge="1">
                    <mxGeometry width="50" height="50" relative="1" as="geometry">
                        <mxPoint x="970" y="910" as="sourcePoint"/>
                        <mxPoint x="1060" y="910" as="targetPoint"/>
                    </mxGeometry>
                </mxCell>
                <mxCell id="428" value="" style="endArrow=classicThin;html=1;strokeWidth=8;fillColor=#ffe6cc;strokeColor=#d79b00;startArrow=none;startFill=0;endSize=0;startSize=0;endFill=1;" parent="1" edge="1">
                    <mxGeometry width="50" height="50" relative="1" as="geometry">
                        <mxPoint x="660" y="800" as="sourcePoint"/>
                        <mxPoint x="1060" y="800" as="targetPoint"/>
                    </mxGeometry>
                </mxCell>
                <mxCell id="429" value="&lt;font face=&quot;Georgia&quot;&gt;&lt;b&gt;BIRsp&lt;/b&gt;&lt;/font&gt;" style="text;html=1;align=center;verticalAlign=middle;resizable=0;points=[];autosize=1;strokeColor=none;fillColor=none;" parent="1" vertex="1">
                    <mxGeometry x="744" y="800" width="60" height="30" as="geometry"/>
                </mxCell>
                <mxCell id="430" value="&lt;font face=&quot;Georgia&quot;&gt;&lt;b&gt;BISnp.others&lt;/b&gt;&lt;/font&gt;" style="text;html=1;align=center;verticalAlign=middle;resizable=0;points=[];autosize=1;strokeColor=none;fillColor=none;" parent="1" vertex="1">
                    <mxGeometry x="920" y="920" width="110" height="30" as="geometry"/>
                </mxCell>
                <mxCell id="431" value="&lt;b style=&quot;&quot;&gt;&lt;font face=&quot;Georgia&quot;&gt;BISnp.address&lt;/font&gt;&lt;/b&gt;" style="text;html=1;align=center;verticalAlign=middle;resizable=0;points=[];autosize=1;strokeColor=none;fillColor=none;" parent="1" vertex="1">
                    <mxGeometry x="695" y="870" width="110" height="30" as="geometry"/>
                </mxCell>
                <mxCell id="432" value="" style="endArrow=none;html=1;strokeWidth=8;fillColor=#ffe6cc;strokeColor=#d79b00;endFill=0;startSize=2;endSize=0;startArrow=classicThin;startFill=1;" parent="1" edge="1">
                    <mxGeometry width="50" height="50" relative="1" as="geometry">
                        <mxPoint x="660" y="910" as="sourcePoint"/>
                        <mxPoint x="760" y="910.19" as="targetPoint"/>
                    </mxGeometry>
                </mxCell>
                <mxCell id="433" value="" style="endArrow=none;html=1;strokeWidth=4;rounded=0;curved=0;exitX=1.014;exitY=0.85;exitDx=0;exitDy=0;exitPerimeter=0;fillColor=#ffe6cc;strokeColor=#d79b00;" parent="1" edge="1">
                    <mxGeometry width="50" height="50" relative="1" as="geometry">
                        <mxPoint x="931.5" y="845" as="sourcePoint"/>
                        <mxPoint x="970" y="890" as="targetPoint"/>
                        <Array as="points">
                            <mxPoint x="970" y="845"/>
                        </Array>
                    </mxGeometry>
                </mxCell>
                <mxCell id="434" value="&lt;b style=&quot;&quot;&gt;&lt;font face=&quot;Georgia&quot;&gt;BISnp.address&amp;nbsp;&lt;/font&gt;&lt;/b&gt;" style="text;html=1;align=center;verticalAlign=middle;resizable=0;points=[];autosize=1;strokeColor=none;fillColor=none;" parent="1" vertex="1">
                    <mxGeometry x="920" y="870" width="120" height="30" as="geometry"/>
                </mxCell>
                <mxCell id="435" value="&lt;b style=&quot;&quot;&gt;&lt;font face=&quot;Georgia&quot;&gt;BISnp.LD_ID&lt;/font&gt;&lt;/b&gt;" style="text;html=1;align=center;verticalAlign=middle;resizable=0;points=[];autosize=1;strokeColor=none;fillColor=none;" parent="1" vertex="1">
                    <mxGeometry x="925" y="820" width="110" height="30" as="geometry"/>
                </mxCell>
                <mxCell id="436" value="&lt;b&gt;&lt;font face=&quot;Georgia&quot;&gt;LD_ID&lt;/font&gt;&lt;/b&gt;" style="text;html=1;align=center;verticalAlign=middle;resizable=0;points=[];autosize=1;strokeColor=none;fillColor=none;" parent="1" vertex="1">
                    <mxGeometry x="785.5" y="660" width="70" height="30" as="geometry"/>
                </mxCell>
                <mxCell id="437" value="" style="endArrow=none;html=1;strokeWidth=4;rounded=0;curved=0;fillColor=#ffe6cc;strokeColor=#d79b00;" parent="1" edge="1">
                    <mxGeometry width="50" height="50" relative="1" as="geometry">
                        <mxPoint x="760" y="720" as="sourcePoint"/>
                        <mxPoint x="800.5" y="680" as="targetPoint"/>
                        <Array as="points">
                            <mxPoint x="760" y="680"/>
                        </Array>
                    </mxGeometry>
                </mxCell>
                <mxCell id="418" value="&lt;b style=&quot;&quot;&gt;&lt;font face=&quot;Georgia&quot;&gt;UIO.address&lt;/font&gt;&lt;/b&gt;" style="text;html=1;align=center;verticalAlign=middle;resizable=0;points=[];autosize=1;strokeColor=none;fillColor=none;" parent="1" vertex="1">
                    <mxGeometry x="705.5" y="700" width="100" height="30" as="geometry"/>
                </mxCell>
                <mxCell id="439" value="&lt;b style=&quot;&quot;&gt;&lt;font face=&quot;Georgia&quot;&gt;UIO.LD_ID&lt;/font&gt;&lt;/b&gt;" style="text;html=1;align=center;verticalAlign=middle;resizable=0;points=[];autosize=1;strokeColor=none;fillColor=none;" parent="1" vertex="1">
                    <mxGeometry x="714" y="660" width="90" height="30" as="geometry"/>
                </mxCell>
                <mxCell id="442" value="" style="endArrow=none;html=1;strokeWidth=4;rounded=0;curved=0;fillColor=#ffe6cc;strokeColor=#d79b00;" parent="1" edge="1">
                    <mxGeometry width="50" height="50" relative="1" as="geometry">
                        <mxPoint x="760" y="570" as="sourcePoint"/>
                        <mxPoint x="800" y="550" as="targetPoint"/>
                        <Array as="points">
                            <mxPoint x="760" y="550"/>
                        </Array>
                    </mxGeometry>
                </mxCell>
                <mxCell id="443" value="" style="endArrow=none;html=1;strokeWidth=4;rounded=0;curved=0;fillColor=#ffe6cc;strokeColor=#d79b00;" parent="1" edge="1">
                    <mxGeometry width="50" height="50" relative="1" as="geometry">
                        <mxPoint x="760" y="570" as="sourcePoint"/>
                        <mxPoint x="970" y="570" as="targetPoint"/>
                        <Array as="points">
                            <mxPoint x="760" y="590"/>
                            <mxPoint x="970" y="590"/>
                        </Array>
                    </mxGeometry>
                </mxCell>
                <mxCell id="444" value="&lt;font style=&quot;font-size: 14px;&quot; face=&quot;Georgia&quot;&gt;&lt;b&gt;HDM&lt;/b&gt;&lt;/font&gt;&lt;div&gt;&lt;font style=&quot;font-size: 14px;&quot; face=&quot;Georgia&quot;&gt;&lt;b&gt;Decoder&lt;/b&gt;&lt;/font&gt;&lt;/div&gt;" style="rounded=0;whiteSpace=wrap;html=1;strokeWidth=4;fillColor=#ffe6cc;strokeColor=#d79b00;" parent="1" vertex="1">
                    <mxGeometry x="800" y="490" width="130" height="70" as="geometry"/>
                </mxCell>
                <mxCell id="445" value="&lt;b&gt;&lt;font face=&quot;Georgia&quot;&gt;HPA&lt;/font&gt;&lt;/b&gt;" style="text;html=1;align=center;verticalAlign=middle;resizable=0;points=[];autosize=1;strokeColor=none;fillColor=none;" parent="1" vertex="1">
                    <mxGeometry x="789" y="530" width="50" height="30" as="geometry"/>
                </mxCell>
                <mxCell id="446" value="&lt;font face=&quot;Georgia&quot;&gt;&lt;b&gt;DPA&lt;/b&gt;&lt;/font&gt;" style="text;html=1;align=center;verticalAlign=middle;resizable=0;points=[];autosize=1;strokeColor=none;fillColor=none;" parent="1" vertex="1">
                    <mxGeometry x="890" y="530" width="50" height="30" as="geometry"/>
                </mxCell>
                <mxCell id="447" value="" style="endArrow=none;html=1;strokeWidth=4;rounded=0;curved=0;exitX=1.014;exitY=0.85;exitDx=0;exitDy=0;exitPerimeter=0;fillColor=#ffe6cc;strokeColor=#d79b00;" parent="1" source="444" edge="1">
                    <mxGeometry width="50" height="50" relative="1" as="geometry">
                        <mxPoint x="950" y="550" as="sourcePoint"/>
                        <mxPoint x="970" y="570" as="targetPoint"/>
                        <Array as="points">
                            <mxPoint x="970" y="550"/>
                        </Array>
                    </mxGeometry>
                </mxCell>
                <mxCell id="448" style="edgeStyle=none;html=1;startArrow=none;startFill=0;endArrow=none;endFill=0;strokeWidth=6;fillColor=#ffe6cc;strokeColor=#d79b00;" parent="1" edge="1">
                    <mxGeometry relative="1" as="geometry">
                        <mxPoint x="840" y="460" as="targetPoint"/>
                        <mxPoint x="950" y="480" as="sourcePoint"/>
                        <Array as="points"/>
                    </mxGeometry>
                </mxCell>
                <mxCell id="449" value="&lt;b&gt;&lt;font face=&quot;Georgia&quot;&gt;ERROR&lt;/font&gt;&lt;/b&gt;" style="text;html=1;align=center;verticalAlign=middle;resizable=0;points=[];autosize=1;strokeColor=none;fillColor=none;" parent="1" vertex="1">
                    <mxGeometry x="870" y="490" width="70" height="30" as="geometry"/>
                </mxCell>
                <mxCell id="450" value="" style="endArrow=classicThin;html=1;strokeWidth=8;fillColor=#ffe6cc;strokeColor=#d79b00;endFill=1;startSize=2;endSize=0;" parent="1" edge="1">
                    <mxGeometry width="50" height="50" relative="1" as="geometry">
                        <mxPoint x="970" y="569.81" as="sourcePoint"/>
                        <mxPoint x="1060" y="570" as="targetPoint"/>
                    </mxGeometry>
                </mxCell>
                <mxCell id="451" value="" style="endArrow=none;html=1;strokeWidth=8;fillColor=#ffe6cc;strokeColor=#d79b00;startArrow=classicThin;startFill=1;endSize=0;startSize=0;" parent="1" edge="1">
                    <mxGeometry width="50" height="50" relative="1" as="geometry">
                        <mxPoint x="660" y="460" as="sourcePoint"/>
                        <mxPoint x="1060" y="460" as="targetPoint"/>
                    </mxGeometry>
                </mxCell>
                <mxCell id="452" value="&lt;b&gt;&lt;font face=&quot;Georgia&quot;&gt;+&lt;/font&gt;&lt;/b&gt;&lt;b style=&quot;text-wrap-mode: nowrap;&quot;&gt;&lt;font face=&quot;Georgia&quot;&gt;Req/RwD&lt;/font&gt;&lt;/b&gt;" style="rounded=0;whiteSpace=wrap;html=1;" parent="1" vertex="1">
                    <mxGeometry x="950" y="480" width="80" height="20" as="geometry"/>
                </mxCell>
                <mxCell id="453" style="edgeStyle=none;html=1;entryX=0.857;entryY=0.333;entryDx=0;entryDy=0;entryPerimeter=0;startArrow=classic;startFill=1;endArrow=none;endFill=0;strokeWidth=2;fillColor=#ffe6cc;strokeColor=#d79b00;" parent="1" source="452" target="449" edge="1">
                    <mxGeometry relative="1" as="geometry"/>
                </mxCell>
                <mxCell id="454" value="&lt;b style=&quot;color: rgb(63, 63, 63); font-family: Georgia;&quot;&gt;DRS/NDR&lt;/b&gt;" style="text;html=1;align=center;verticalAlign=middle;resizable=0;points=[];autosize=1;strokeColor=none;fillColor=none;" parent="1" vertex="1">
                    <mxGeometry x="710" y="460" width="90" height="30" as="geometry"/>
                </mxCell>
                <mxCell id="455" value="" style="endArrow=classicThin;html=1;strokeWidth=8;fillColor=#ffe6cc;strokeColor=#d79b00;endFill=1;startSize=2;endSize=0;" parent="1" edge="1">
                    <mxGeometry width="50" height="50" relative="1" as="geometry">
                        <mxPoint x="660" y="570" as="sourcePoint"/>
                        <mxPoint x="759" y="570.07" as="targetPoint"/>
                    </mxGeometry>
                </mxCell>
                <mxCell id="456" value="&lt;b&gt;&lt;font face=&quot;Georgia&quot;&gt;Req/RwD&lt;/font&gt;&lt;/b&gt;&lt;font face=&quot;Georgia&quot;&gt;&lt;b&gt;.others&lt;/b&gt;&lt;/font&gt;" style="text;html=1;align=center;verticalAlign=middle;resizable=0;points=[];autosize=1;strokeColor=none;fillColor=none;" parent="1" vertex="1">
                    <mxGeometry x="679" y="580" width="130" height="30" as="geometry"/>
                </mxCell>
                <mxCell id="457" value="&lt;b&gt;&lt;font face=&quot;Georgia&quot;&gt;Req/RwD&lt;/font&gt;&lt;/b&gt;&lt;b style=&quot;&quot;&gt;&lt;font face=&quot;Georgia&quot;&gt;.address&lt;/font&gt;&lt;/b&gt;" style="text;html=1;align=center;verticalAlign=middle;resizable=0;points=[];autosize=1;strokeColor=none;fillColor=none;" parent="1" vertex="1">
                    <mxGeometry x="920" y="530" width="140" height="30" as="geometry"/>
                </mxCell>
                <mxCell id="458" value="&lt;b&gt;&lt;font face=&quot;Georgia&quot;&gt;LD_ID&lt;/font&gt;&lt;/b&gt;" style="text;html=1;align=center;verticalAlign=middle;resizable=0;points=[];autosize=1;strokeColor=none;fillColor=none;" parent="1" vertex="1">
                    <mxGeometry x="785.5" y="490" width="70" height="30" as="geometry"/>
                </mxCell>
                <mxCell id="459" value="" style="endArrow=none;html=1;strokeWidth=4;rounded=0;curved=0;fillColor=#ffe6cc;strokeColor=#d79b00;" parent="1" edge="1">
                    <mxGeometry width="50" height="50" relative="1" as="geometry">
                        <mxPoint x="760" y="550" as="sourcePoint"/>
                        <mxPoint x="800.5" y="510" as="targetPoint"/>
                        <Array as="points">
                            <mxPoint x="760" y="510"/>
                        </Array>
                    </mxGeometry>
                </mxCell>
                <mxCell id="460" value="&lt;b&gt;&lt;font face=&quot;Georgia&quot;&gt;Req/RwD&lt;/font&gt;&lt;/b&gt;&lt;b style=&quot;&quot;&gt;&lt;font face=&quot;Georgia&quot;&gt;.address&lt;/font&gt;&lt;/b&gt;" style="text;html=1;align=center;verticalAlign=middle;resizable=0;points=[];autosize=1;strokeColor=none;fillColor=none;" parent="1" vertex="1">
                    <mxGeometry x="669" y="530" width="140" height="30" as="geometry"/>
                </mxCell>
                <mxCell id="461" value="&lt;b&gt;&lt;font face=&quot;Georgia&quot;&gt;Req/RwD&lt;/font&gt;&lt;/b&gt;&lt;b style=&quot;&quot;&gt;&lt;font face=&quot;Georgia&quot;&gt;.LD_ID&lt;/font&gt;&lt;/b&gt;" style="text;html=1;align=center;verticalAlign=middle;resizable=0;points=[];autosize=1;strokeColor=none;fillColor=none;" parent="1" vertex="1">
                    <mxGeometry x="675.5" y="490" width="130" height="30" as="geometry"/>
                </mxCell>
                <mxCell id="469" value="&lt;font face=&quot;Georgia&quot;&gt;&lt;span style=&quot;font-size: 18px;&quot;&gt;&lt;b&gt;？？？&lt;/b&gt;&lt;/span&gt;&lt;/font&gt;" style="rounded=0;whiteSpace=wrap;html=1;strokeWidth=4;fillColor=#f5f5f5;strokeColor=#666666;fontColor=#333333;" parent="1" vertex="1">
                    <mxGeometry x="1200" y="260" width="170" height="70" as="geometry"/>
                </mxCell>
                <mxCell id="471" value="" style="endArrow=none;html=1;strokeWidth=4;rounded=0;curved=0;fillColor=#f8cecc;strokeColor=#b85450;" parent="1" edge="1">
                    <mxGeometry width="50" height="50" relative="1" as="geometry">
                        <mxPoint x="1180" y="740" as="sourcePoint"/>
                        <mxPoint x="1220" y="720" as="targetPoint"/>
                        <Array as="points">
                            <mxPoint x="1180" y="720"/>
                        </Array>
                    </mxGeometry>
                </mxCell>
                <mxCell id="472" value="" style="endArrow=none;html=1;strokeWidth=4;rounded=0;curved=0;fillColor=#f8cecc;strokeColor=#b85450;" parent="1" edge="1">
                    <mxGeometry width="50" height="50" relative="1" as="geometry">
                        <mxPoint x="1180" y="740" as="sourcePoint"/>
                        <mxPoint x="1390" y="740" as="targetPoint"/>
                        <Array as="points">
                            <mxPoint x="1180" y="760"/>
                            <mxPoint x="1390" y="760"/>
                        </Array>
                    </mxGeometry>
                </mxCell>
                <mxCell id="473" value="&lt;b&gt;&lt;font style=&quot;font-size: 18px;&quot; face=&quot;Georgia&quot;&gt;GDCD&lt;/font&gt;&lt;/b&gt;" style="rounded=0;whiteSpace=wrap;html=1;strokeWidth=4;fillColor=#f8cecc;strokeColor=#b85450;" parent="1" vertex="1">
                    <mxGeometry x="1220" y="660" width="130" height="70" as="geometry"/>
                </mxCell>
                <mxCell id="474" value="&lt;b&gt;&lt;font face=&quot;Georgia&quot;&gt;DPA&lt;/font&gt;&lt;/b&gt;" style="text;html=1;align=center;verticalAlign=middle;resizable=0;points=[];autosize=1;strokeColor=none;fillColor=none;" parent="1" vertex="1">
                    <mxGeometry x="1209" y="700" width="50" height="30" as="geometry"/>
                </mxCell>
                <mxCell id="475" value="&lt;b style=&quot;color: rgb(63, 63, 63); font-family: Georgia;&quot;&gt;MPA/DPA&lt;/b&gt;" style="text;html=1;align=center;verticalAlign=middle;resizable=0;points=[];autosize=1;strokeColor=none;fillColor=none;" parent="1" vertex="1">
                    <mxGeometry x="1270.5" y="700" width="90" height="30" as="geometry"/>
                </mxCell>
                <mxCell id="476" value="" style="endArrow=none;html=1;strokeWidth=4;rounded=0;curved=0;exitX=1.014;exitY=0.85;exitDx=0;exitDy=0;exitPerimeter=0;fillColor=#f8cecc;strokeColor=#b85450;" parent="1" source="473" edge="1">
                    <mxGeometry width="50" height="50" relative="1" as="geometry">
                        <mxPoint x="1370" y="720" as="sourcePoint"/>
                        <mxPoint x="1390" y="740" as="targetPoint"/>
                        <Array as="points">
                            <mxPoint x="1390" y="720"/>
                        </Array>
                    </mxGeometry>
                </mxCell>
                <mxCell id="477" style="edgeStyle=none;html=1;startArrow=none;startFill=0;endArrow=none;endFill=0;strokeWidth=6;fillColor=#f8cecc;strokeColor=#b85450;" parent="1" edge="1">
                    <mxGeometry relative="1" as="geometry">
                        <mxPoint x="1260" y="630" as="targetPoint"/>
                        <mxPoint x="1370" y="650" as="sourcePoint"/>
                        <Array as="points"/>
                    </mxGeometry>
                </mxCell>
                <mxCell id="478" value="&lt;b&gt;&lt;font face=&quot;Georgia&quot;&gt;ERROR&lt;/font&gt;&lt;/b&gt;" style="text;html=1;align=center;verticalAlign=middle;resizable=0;points=[];autosize=1;strokeColor=none;fillColor=none;" parent="1" vertex="1">
                    <mxGeometry x="1290" y="660" width="70" height="30" as="geometry"/>
                </mxCell>
                <mxCell id="479" value="" style="endArrow=classicThin;html=1;strokeWidth=8;fillColor=#f8cecc;strokeColor=#b85450;endFill=1;startSize=2;endSize=0;" parent="1" edge="1">
                    <mxGeometry width="50" height="50" relative="1" as="geometry">
                        <mxPoint x="1390" y="739.81" as="sourcePoint"/>
                        <mxPoint x="1480" y="740" as="targetPoint"/>
                    </mxGeometry>
                </mxCell>
                <mxCell id="480" value="" style="endArrow=none;html=1;strokeWidth=8;fillColor=#f8cecc;strokeColor=#b85450;startArrow=classicThin;startFill=1;endSize=0;startSize=0;" parent="1" edge="1">
                    <mxGeometry width="50" height="50" relative="1" as="geometry">
                        <mxPoint x="1080" y="630" as="sourcePoint"/>
                        <mxPoint x="1480" y="630" as="targetPoint"/>
                    </mxGeometry>
                </mxCell>
                <mxCell id="481" value="&lt;b&gt;&lt;font face=&quot;Georgia&quot;&gt;+UIO&lt;/font&gt;&lt;/b&gt;" style="rounded=0;whiteSpace=wrap;html=1;" parent="1" vertex="1">
                    <mxGeometry x="1370" y="650" width="40" height="20" as="geometry"/>
                </mxCell>
                <mxCell id="482" style="edgeStyle=none;html=1;entryX=0.857;entryY=0.333;entryDx=0;entryDy=0;entryPerimeter=0;startArrow=classic;startFill=1;endArrow=none;endFill=0;strokeWidth=2;fillColor=#f8cecc;strokeColor=#b85450;" parent="1" source="481" target="478" edge="1">
                    <mxGeometry relative="1" as="geometry"/>
                </mxCell>
                <mxCell id="483" value="&lt;font face=&quot;Georgia&quot;&gt;&lt;b&gt;UIORSP&lt;/b&gt;&lt;/font&gt;" style="text;html=1;align=center;verticalAlign=middle;resizable=0;points=[];autosize=1;strokeColor=none;fillColor=none;" parent="1" vertex="1">
                    <mxGeometry x="1150.5" y="630" width="70" height="30" as="geometry"/>
                </mxCell>
                <mxCell id="485" style="edgeStyle=none;html=1;fontSize=17;strokeWidth=3;fillColor=#f5f5f5;strokeColor=#666666;dashed=1;entryX=0.5;entryY=0;entryDx=0;entryDy=0;" parent="1" target="473" edge="1">
                    <mxGeometry relative="1" as="geometry">
                        <mxPoint x="1284.55" y="800" as="targetPoint"/>
                        <mxPoint x="1284.55" y="330" as="sourcePoint"/>
                    </mxGeometry>
                </mxCell>
                <mxCell id="486" value="" style="endArrow=classicThin;html=1;strokeWidth=8;fillColor=#f8cecc;strokeColor=#b85450;endFill=1;startSize=2;endSize=0;" parent="1" edge="1">
                    <mxGeometry width="50" height="50" relative="1" as="geometry">
                        <mxPoint x="1081.5" y="740" as="sourcePoint"/>
                        <mxPoint x="1180.5" y="740.07" as="targetPoint"/>
                    </mxGeometry>
                </mxCell>
                <mxCell id="487" value="" style="endArrow=none;html=1;strokeWidth=4;rounded=0;curved=0;fillColor=#f8cecc;strokeColor=#b85450;" parent="1" edge="1">
                    <mxGeometry width="50" height="50" relative="1" as="geometry">
                        <mxPoint x="1180" y="570" as="sourcePoint"/>
                        <mxPoint x="1220" y="550" as="targetPoint"/>
                        <Array as="points">
                            <mxPoint x="1180" y="550"/>
                        </Array>
                    </mxGeometry>
                </mxCell>
                <mxCell id="488" value="" style="endArrow=none;html=1;strokeWidth=4;rounded=0;curved=0;fillColor=#f8cecc;strokeColor=#b85450;" parent="1" edge="1">
                    <mxGeometry width="50" height="50" relative="1" as="geometry">
                        <mxPoint x="1180" y="570" as="sourcePoint"/>
                        <mxPoint x="1390" y="570" as="targetPoint"/>
                        <Array as="points">
                            <mxPoint x="1180" y="590"/>
                            <mxPoint x="1390" y="590"/>
                        </Array>
                    </mxGeometry>
                </mxCell>
                <mxCell id="489" value="&lt;b&gt;&lt;font face=&quot;Georgia&quot; style=&quot;font-size: 18px;&quot;&gt;GDCD&lt;/font&gt;&lt;/b&gt;" style="rounded=0;whiteSpace=wrap;html=1;strokeWidth=4;fillColor=#f8cecc;strokeColor=#b85450;" parent="1" vertex="1">
                    <mxGeometry x="1220" y="490" width="130" height="70" as="geometry"/>
                </mxCell>
                <mxCell id="490" value="&lt;b&gt;&lt;font face=&quot;Georgia&quot;&gt;DPA&lt;/font&gt;&lt;/b&gt;" style="text;html=1;align=center;verticalAlign=middle;resizable=0;points=[];autosize=1;strokeColor=none;fillColor=none;" parent="1" vertex="1">
                    <mxGeometry x="1209" y="530" width="50" height="30" as="geometry"/>
                </mxCell>
                <mxCell id="491" value="&lt;font face=&quot;Georgia&quot;&gt;&lt;b&gt;MPA/DPA&lt;/b&gt;&lt;/font&gt;" style="text;html=1;align=center;verticalAlign=middle;resizable=0;points=[];autosize=1;strokeColor=none;fillColor=none;" parent="1" vertex="1">
                    <mxGeometry x="1270" y="530" width="90" height="30" as="geometry"/>
                </mxCell>
                <mxCell id="492" value="" style="endArrow=none;html=1;strokeWidth=4;rounded=0;curved=0;exitX=1.014;exitY=0.85;exitDx=0;exitDy=0;exitPerimeter=0;fillColor=#f8cecc;strokeColor=#b85450;" parent="1" source="489" edge="1">
                    <mxGeometry width="50" height="50" relative="1" as="geometry">
                        <mxPoint x="1370" y="550" as="sourcePoint"/>
                        <mxPoint x="1390" y="570" as="targetPoint"/>
                        <Array as="points">
                            <mxPoint x="1390" y="550"/>
                        </Array>
                    </mxGeometry>
                </mxCell>
                <mxCell id="493" style="edgeStyle=none;html=1;startArrow=none;startFill=0;endArrow=none;endFill=0;strokeWidth=6;fillColor=#f8cecc;strokeColor=#b85450;" parent="1" edge="1">
                    <mxGeometry relative="1" as="geometry">
                        <mxPoint x="1260" y="460" as="targetPoint"/>
                        <mxPoint x="1370" y="480" as="sourcePoint"/>
                        <Array as="points"/>
                    </mxGeometry>
                </mxCell>
                <mxCell id="494" value="&lt;b&gt;&lt;font face=&quot;Georgia&quot;&gt;ERROR&lt;/font&gt;&lt;/b&gt;" style="text;html=1;align=center;verticalAlign=middle;resizable=0;points=[];autosize=1;strokeColor=none;fillColor=none;" parent="1" vertex="1">
                    <mxGeometry x="1290" y="490" width="70" height="30" as="geometry"/>
                </mxCell>
                <mxCell id="495" value="" style="endArrow=classicThin;html=1;strokeWidth=8;fillColor=#f8cecc;strokeColor=#b85450;endFill=1;startSize=2;endSize=0;" parent="1" edge="1">
                    <mxGeometry width="50" height="50" relative="1" as="geometry">
                        <mxPoint x="1390" y="569.81" as="sourcePoint"/>
                        <mxPoint x="1480" y="570" as="targetPoint"/>
                    </mxGeometry>
                </mxCell>
                <mxCell id="496" value="" style="endArrow=none;html=1;strokeWidth=8;fillColor=#f8cecc;strokeColor=#b85450;startArrow=classicThin;startFill=1;endSize=0;startSize=0;" parent="1" edge="1">
                    <mxGeometry width="50" height="50" relative="1" as="geometry">
                        <mxPoint x="1080" y="460" as="sourcePoint"/>
                        <mxPoint x="1480" y="460" as="targetPoint"/>
                    </mxGeometry>
                </mxCell>
                <mxCell id="497" value="&lt;b&gt;&lt;font face=&quot;Georgia&quot;&gt;+&lt;/font&gt;&lt;/b&gt;&lt;b style=&quot;text-wrap-mode: nowrap;&quot;&gt;&lt;font face=&quot;Georgia&quot;&gt;Req/RwD&lt;/font&gt;&lt;/b&gt;" style="rounded=0;whiteSpace=wrap;html=1;" parent="1" vertex="1">
                    <mxGeometry x="1370" y="480" width="80" height="20" as="geometry"/>
                </mxCell>
                <mxCell id="498" style="edgeStyle=none;html=1;entryX=0.857;entryY=0.333;entryDx=0;entryDy=0;entryPerimeter=0;startArrow=classic;startFill=1;endArrow=none;endFill=0;strokeWidth=2;fillColor=#f8cecc;strokeColor=#b85450;" parent="1" source="497" target="494" edge="1">
                    <mxGeometry relative="1" as="geometry"/>
                </mxCell>
                <mxCell id="499" value="&lt;font face=&quot;Georgia&quot;&gt;&lt;b&gt;DRS/NDR&lt;/b&gt;&lt;/font&gt;" style="text;html=1;align=center;verticalAlign=middle;resizable=0;points=[];autosize=1;strokeColor=none;fillColor=none;" parent="1" vertex="1">
                    <mxGeometry x="1130" y="460" width="90" height="30" as="geometry"/>
                </mxCell>
                <mxCell id="500" value="&lt;b&gt;&lt;font face=&quot;Georgia&quot;&gt;Req/RwD&lt;/font&gt;&lt;/b&gt;&lt;b style=&quot;&quot;&gt;&lt;font face=&quot;Georgia&quot;&gt;.address&lt;/font&gt;&lt;/b&gt;" style="text;html=1;align=center;verticalAlign=middle;resizable=0;points=[];autosize=1;strokeColor=none;fillColor=none;" parent="1" vertex="1">
                    <mxGeometry x="1340" y="530" width="140" height="30" as="geometry"/>
                </mxCell>
                <mxCell id="501" value="" style="endArrow=classicThin;html=1;strokeWidth=8;fillColor=#f8cecc;strokeColor=#b85450;endFill=1;startSize=2;endSize=0;" parent="1" edge="1">
                    <mxGeometry width="50" height="50" relative="1" as="geometry">
                        <mxPoint x="1081.5" y="570.07" as="sourcePoint"/>
                        <mxPoint x="1180.5" y="569.8900000000001" as="targetPoint"/>
                    </mxGeometry>
                </mxCell>
                <mxCell id="502" style="edgeStyle=none;html=1;fontSize=17;strokeWidth=3;fillColor=#f5f5f5;strokeColor=#666666;dashed=1;" parent="1" edge="1">
                    <mxGeometry relative="1" as="geometry">
                        <mxPoint x="1285" y="490" as="targetPoint"/>
                        <mxPoint x="1284.5" y="330" as="sourcePoint"/>
                    </mxGeometry>
                </mxCell>
                <mxCell id="503" value="&lt;b&gt;&lt;font face=&quot;Georgia&quot;&gt;Req/RwD&lt;/font&gt;&lt;/b&gt;&lt;font face=&quot;Georgia&quot;&gt;&lt;b&gt;.others&lt;/b&gt;&lt;/font&gt;" style="text;html=1;align=center;verticalAlign=middle;resizable=0;points=[];autosize=1;strokeColor=none;fillColor=none;" parent="1" vertex="1">
                    <mxGeometry x="1100" y="580" width="130" height="30" as="geometry"/>
                </mxCell>
                <mxCell id="504" value="&lt;b style=&quot;&quot;&gt;&lt;font face=&quot;Georgia&quot;&gt;Req/RwD.address&lt;/font&gt;&lt;/b&gt;" style="text;html=1;align=center;verticalAlign=middle;resizable=0;points=[];autosize=1;strokeColor=none;fillColor=none;" parent="1" vertex="1">
                    <mxGeometry x="1090" y="530" width="140" height="30" as="geometry"/>
                </mxCell>
                <mxCell id="505" value="&lt;font face=&quot;Georgia&quot;&gt;&lt;b&gt;UIO.others&lt;/b&gt;&lt;/font&gt;" style="text;html=1;align=center;verticalAlign=middle;resizable=0;points=[];autosize=1;strokeColor=none;fillColor=none;" parent="1" vertex="1">
                    <mxGeometry x="1135" y="750" width="90" height="30" as="geometry"/>
                </mxCell>
                <mxCell id="506" value="&lt;b style=&quot;&quot;&gt;&lt;font face=&quot;Georgia&quot;&gt;UIO.address&lt;/font&gt;&lt;/b&gt;" style="text;html=1;align=center;verticalAlign=middle;resizable=0;points=[];autosize=1;strokeColor=none;fillColor=none;" parent="1" vertex="1">
                    <mxGeometry x="1125" y="700" width="100" height="30" as="geometry"/>
                </mxCell>
                <mxCell id="507" value="&lt;b style=&quot;&quot;&gt;&lt;font face=&quot;Georgia&quot;&gt;UIO.address&lt;/font&gt;&lt;/b&gt;" style="text;html=1;align=center;verticalAlign=middle;resizable=0;points=[];autosize=1;strokeColor=none;fillColor=none;" parent="1" vertex="1">
                    <mxGeometry x="1345" y="700" width="100" height="30" as="geometry"/>
                </mxCell>
                <mxCell id="516" value="" style="endArrow=classicThin;html=1;strokeWidth=8;fillColor=#f8cecc;strokeColor=#b85450;startArrow=none;startFill=0;endSize=0;startSize=0;endFill=1;" parent="1" edge="1">
                    <mxGeometry width="50" height="50" relative="1" as="geometry">
                        <mxPoint x="1080" y="800" as="sourcePoint"/>
                        <mxPoint x="1480" y="800" as="targetPoint"/>
                    </mxGeometry>
                </mxCell>
                <mxCell id="517" value="&lt;font face=&quot;Georgia&quot;&gt;&lt;b&gt;BIRsp&lt;/b&gt;&lt;/font&gt;" style="text;html=1;align=center;verticalAlign=middle;resizable=0;points=[];autosize=1;strokeColor=none;fillColor=none;" parent="1" vertex="1">
                    <mxGeometry x="1165" y="800" width="60" height="30" as="geometry"/>
                </mxCell>
                <mxCell id="519" value="&lt;b style=&quot;&quot;&gt;&lt;font face=&quot;Georgia&quot;&gt;BISnp&lt;/font&gt;&lt;/b&gt;" style="text;html=1;align=center;verticalAlign=middle;resizable=0;points=[];autosize=1;strokeColor=none;fillColor=none;" parent="1" vertex="1">
                    <mxGeometry x="1165" y="880" width="60" height="30" as="geometry"/>
                </mxCell>
                <mxCell id="520" value="" style="endArrow=none;html=1;strokeWidth=8;fillColor=#f8cecc;strokeColor=#b85450;endFill=0;startSize=2;endSize=0;startArrow=classicThin;startFill=1;" parent="1" edge="1">
                    <mxGeometry width="50" height="50" relative="1" as="geometry">
                        <mxPoint x="1080" y="910" as="sourcePoint"/>
                        <mxPoint x="1480" y="910" as="targetPoint"/>
                    </mxGeometry>
                </mxCell>
                <mxCell id="523" value="&lt;b style=&quot;&quot;&gt;&lt;font face=&quot;Georgia&quot;&gt;BISnp.DPID&lt;/font&gt;&lt;/b&gt;" style="text;html=1;align=center;verticalAlign=middle;resizable=0;points=[];autosize=1;strokeColor=none;fillColor=none;" parent="1" vertex="1">
                    <mxGeometry x="1345" y="820" width="100" height="30" as="geometry"/>
                </mxCell>
                <mxCell id="525" style="edgeStyle=none;html=1;fontSize=17;strokeWidth=3;fillColor=#f5f5f5;strokeColor=#666666;dashed=1;entryX=0.5;entryY=0;entryDx=0;entryDy=0;" parent="1" source="526" target="549" edge="1">
                    <mxGeometry relative="1" as="geometry">
                        <mxPoint x="1705.0000000000002" y="800" as="targetPoint"/>
                    </mxGeometry>
                </mxCell>
                <mxCell id="526" value="&lt;font face=&quot;Georgia&quot;&gt;&lt;span style=&quot;font-size: 18px;&quot;&gt;&lt;b&gt;？？？&lt;/b&gt;&lt;/span&gt;&lt;/font&gt;" style="rounded=0;whiteSpace=wrap;html=1;strokeWidth=4;fillColor=#f5f5f5;strokeColor=#666666;fontColor=#333333;" parent="1" vertex="1">
                    <mxGeometry x="1620" y="260" width="170" height="70" as="geometry"/>
                </mxCell>
                <mxCell id="528" value="" style="endArrow=none;html=1;strokeWidth=4;rounded=0;curved=0;fillColor=#ffe6cc;strokeColor=#d79b00;" parent="1" edge="1">
                    <mxGeometry width="50" height="50" relative="1" as="geometry">
                        <mxPoint x="1600" y="740" as="sourcePoint"/>
                        <mxPoint x="1640" y="720" as="targetPoint"/>
                        <Array as="points">
                            <mxPoint x="1600" y="720"/>
                        </Array>
                    </mxGeometry>
                </mxCell>
                <mxCell id="529" value="" style="endArrow=none;html=1;strokeWidth=4;rounded=0;curved=0;fillColor=#ffe6cc;strokeColor=#d79b00;" parent="1" edge="1">
                    <mxGeometry width="50" height="50" relative="1" as="geometry">
                        <mxPoint x="1600" y="740" as="sourcePoint"/>
                        <mxPoint x="1810" y="740" as="targetPoint"/>
                        <Array as="points">
                            <mxPoint x="1600" y="760"/>
                            <mxPoint x="1810" y="760"/>
                        </Array>
                    </mxGeometry>
                </mxCell>
                <mxCell id="530" value="&lt;b&gt;&lt;font style=&quot;font-size: 18px;&quot; face=&quot;Georgia&quot;&gt;LDDCD&lt;/font&gt;&lt;/b&gt;" style="rounded=0;whiteSpace=wrap;html=1;strokeWidth=4;fillColor=#ffe6cc;strokeColor=#d79b00;" parent="1" vertex="1">
                    <mxGeometry x="1640" y="660" width="130" height="70" as="geometry"/>
                </mxCell>
                <mxCell id="531" value="&lt;b&gt;&lt;font face=&quot;Georgia&quot;&gt;DPA&lt;/font&gt;&lt;/b&gt;" style="text;html=1;align=center;verticalAlign=middle;resizable=0;points=[];autosize=1;strokeColor=none;fillColor=none;" parent="1" vertex="1">
                    <mxGeometry x="1629" y="700" width="50" height="30" as="geometry"/>
                </mxCell>
                <mxCell id="532" value="&lt;b style=&quot;color: rgb(63, 63, 63); font-family: Georgia;&quot;&gt;MPA&lt;/b&gt;" style="text;html=1;align=center;verticalAlign=middle;resizable=0;points=[];autosize=1;strokeColor=none;fillColor=none;" parent="1" vertex="1">
                    <mxGeometry x="1730" y="700" width="50" height="30" as="geometry"/>
                </mxCell>
                <mxCell id="533" value="" style="endArrow=none;html=1;strokeWidth=4;rounded=0;curved=0;exitX=1.014;exitY=0.85;exitDx=0;exitDy=0;exitPerimeter=0;fillColor=#ffe6cc;strokeColor=#d79b00;" parent="1" source="530" edge="1">
                    <mxGeometry width="50" height="50" relative="1" as="geometry">
                        <mxPoint x="1790" y="720" as="sourcePoint"/>
                        <mxPoint x="1810" y="740" as="targetPoint"/>
                        <Array as="points">
                            <mxPoint x="1810" y="720"/>
                        </Array>
                    </mxGeometry>
                </mxCell>
                <mxCell id="534" style="edgeStyle=none;html=1;startArrow=none;startFill=0;endArrow=none;endFill=0;strokeWidth=6;fillColor=#ffe6cc;strokeColor=#d79b00;" parent="1" edge="1">
                    <mxGeometry relative="1" as="geometry">
                        <mxPoint x="1680" y="630" as="targetPoint"/>
                        <mxPoint x="1790" y="650" as="sourcePoint"/>
                        <Array as="points"/>
                    </mxGeometry>
                </mxCell>
                <mxCell id="535" value="&lt;b&gt;&lt;font face=&quot;Georgia&quot;&gt;ERROR&lt;/font&gt;&lt;/b&gt;" style="text;html=1;align=center;verticalAlign=middle;resizable=0;points=[];autosize=1;strokeColor=none;fillColor=none;" parent="1" vertex="1">
                    <mxGeometry x="1710" y="660" width="70" height="30" as="geometry"/>
                </mxCell>
                <mxCell id="536" value="" style="endArrow=classicThin;html=1;strokeWidth=8;fillColor=#ffe6cc;strokeColor=#d79b00;endFill=1;startSize=2;endSize=0;entryX=0.018;entryY=0.947;entryDx=0;entryDy=0;entryPerimeter=0;" parent="1" target="587" edge="1">
                    <mxGeometry width="50" height="50" relative="1" as="geometry">
                        <mxPoint x="1810" y="739.81" as="sourcePoint"/>
                        <mxPoint x="1950" y="740" as="targetPoint"/>
                    </mxGeometry>
                </mxCell>
                <mxCell id="537" value="" style="endArrow=none;html=1;strokeWidth=8;fillColor=#ffe6cc;strokeColor=#d79b00;startArrow=classicThin;startFill=1;endSize=0;startSize=0;" parent="1" edge="1">
                    <mxGeometry width="50" height="50" relative="1" as="geometry">
                        <mxPoint x="1500" y="630" as="sourcePoint"/>
                        <mxPoint x="1900" y="630" as="targetPoint"/>
                    </mxGeometry>
                </mxCell>
                <mxCell id="538" value="&lt;b&gt;&lt;font face=&quot;Georgia&quot;&gt;+UIO&lt;/font&gt;&lt;/b&gt;" style="rounded=0;whiteSpace=wrap;html=1;" parent="1" vertex="1">
                    <mxGeometry x="1790" y="650" width="40" height="20" as="geometry"/>
                </mxCell>
                <mxCell id="539" style="edgeStyle=none;html=1;entryX=0.857;entryY=0.333;entryDx=0;entryDy=0;entryPerimeter=0;startArrow=classic;startFill=1;endArrow=none;endFill=0;strokeWidth=2;fillColor=#ffe6cc;strokeColor=#d79b00;" parent="1" source="538" target="535" edge="1">
                    <mxGeometry relative="1" as="geometry"/>
                </mxCell>
                <mxCell id="540" value="&lt;font face=&quot;Georgia&quot;&gt;&lt;b&gt;UIORSP&lt;/b&gt;&lt;/font&gt;" style="text;html=1;align=center;verticalAlign=middle;resizable=0;points=[];autosize=1;strokeColor=none;fillColor=none;" parent="1" vertex="1">
                    <mxGeometry x="1575" y="630" width="70" height="30" as="geometry"/>
                </mxCell>
                <mxCell id="542" style="edgeStyle=none;html=1;fontSize=17;strokeWidth=3;fillColor=#f5f5f5;strokeColor=#666666;dashed=1;entryX=0.5;entryY=0;entryDx=0;entryDy=0;" parent="1" target="530" edge="1">
                    <mxGeometry relative="1" as="geometry">
                        <mxPoint x="1704.55" y="800" as="targetPoint"/>
                        <mxPoint x="1704.55" y="330" as="sourcePoint"/>
                    </mxGeometry>
                </mxCell>
                <mxCell id="543" value="" style="endArrow=classicThin;html=1;strokeWidth=8;fillColor=#ffe6cc;strokeColor=#d79b00;endFill=1;startSize=2;endSize=0;" parent="1" edge="1">
                    <mxGeometry width="50" height="50" relative="1" as="geometry">
                        <mxPoint x="1500" y="740" as="sourcePoint"/>
                        <mxPoint x="1599" y="740.07" as="targetPoint"/>
                    </mxGeometry>
                </mxCell>
                <mxCell id="544" style="edgeStyle=none;html=1;fontSize=17;strokeWidth=3;fillColor=#f5f5f5;strokeColor=#666666;dashed=1;" parent="1" edge="1">
                    <mxGeometry relative="1" as="geometry">
                        <mxPoint x="1705" y="490" as="targetPoint"/>
                        <mxPoint x="1704.5" y="330" as="sourcePoint"/>
                    </mxGeometry>
                </mxCell>
                <mxCell id="545" value="&lt;font face=&quot;Georgia&quot;&gt;&lt;b&gt;UIO.others&lt;/b&gt;&lt;/font&gt;" style="text;html=1;align=center;verticalAlign=middle;resizable=0;points=[];autosize=1;strokeColor=none;fillColor=none;" parent="1" vertex="1">
                    <mxGeometry x="1555.5" y="750" width="90" height="30" as="geometry"/>
                </mxCell>
                <mxCell id="546" value="&lt;b style=&quot;&quot;&gt;&lt;font face=&quot;Georgia&quot;&gt;UIO.address&lt;/font&gt;&lt;/b&gt;" style="text;html=1;align=center;verticalAlign=middle;resizable=0;points=[];autosize=1;strokeColor=none;fillColor=none;" parent="1" vertex="1">
                    <mxGeometry x="1765" y="700" width="100" height="30" as="geometry"/>
                </mxCell>
                <mxCell id="547" value="" style="endArrow=none;html=1;strokeWidth=4;rounded=0;curved=0;fillColor=#ffe6cc;strokeColor=#d79b00;" parent="1" edge="1">
                    <mxGeometry width="50" height="50" relative="1" as="geometry">
                        <mxPoint x="1600.5" y="910" as="sourcePoint"/>
                        <mxPoint x="1640.5" y="890" as="targetPoint"/>
                        <Array as="points">
                            <mxPoint x="1600.5" y="890"/>
                        </Array>
                    </mxGeometry>
                </mxCell>
                <mxCell id="548" value="" style="endArrow=none;html=1;strokeWidth=4;rounded=0;curved=0;fillColor=#ffe6cc;strokeColor=#d79b00;" parent="1" edge="1">
                    <mxGeometry width="50" height="50" relative="1" as="geometry">
                        <mxPoint x="1600.5" y="910" as="sourcePoint"/>
                        <mxPoint x="1810" y="910" as="targetPoint"/>
                        <Array as="points">
                            <mxPoint x="1600.5" y="930"/>
                            <mxPoint x="1810" y="930"/>
                        </Array>
                    </mxGeometry>
                </mxCell>
                <mxCell id="549" value="&lt;b&gt;&lt;font style=&quot;font-size: 18px;&quot; face=&quot;Georgia&quot;&gt;LDDCD&lt;/font&gt;&lt;/b&gt;" style="rounded=0;whiteSpace=wrap;html=1;strokeWidth=4;fillColor=#ffe6cc;strokeColor=#d79b00;" parent="1" vertex="1">
                    <mxGeometry x="1640.5" y="830" width="130" height="70" as="geometry"/>
                </mxCell>
                <mxCell id="550" value="&lt;b&gt;&lt;font face=&quot;Georgia&quot;&gt;DPA&lt;/font&gt;&lt;/b&gt;" style="text;html=1;align=center;verticalAlign=middle;resizable=0;points=[];autosize=1;strokeColor=none;fillColor=none;" parent="1" vertex="1">
                    <mxGeometry x="1629.5" y="870" width="50" height="30" as="geometry"/>
                </mxCell>
                <mxCell id="551" value="&lt;font face=&quot;Georgia&quot;&gt;&lt;b&gt;MPA&lt;/b&gt;&lt;/font&gt;" style="text;html=1;align=center;verticalAlign=middle;resizable=0;points=[];autosize=1;strokeColor=none;fillColor=none;" parent="1" vertex="1">
                    <mxGeometry x="1730.5" y="870" width="50" height="30" as="geometry"/>
                </mxCell>
                <mxCell id="552" value="" style="endArrow=none;html=1;strokeWidth=4;rounded=0;curved=0;exitX=1.014;exitY=0.85;exitDx=0;exitDy=0;exitPerimeter=0;fillColor=#ffe6cc;strokeColor=#d79b00;" parent="1" source="549" edge="1">
                    <mxGeometry width="50" height="50" relative="1" as="geometry">
                        <mxPoint x="1790.5" y="890" as="sourcePoint"/>
                        <mxPoint x="1810" y="910" as="targetPoint"/>
                        <Array as="points">
                            <mxPoint x="1810" y="890"/>
                        </Array>
                    </mxGeometry>
                </mxCell>
                <mxCell id="553" value="&lt;b&gt;&lt;font face=&quot;Georgia&quot;&gt;LD_ID&lt;/font&gt;&lt;/b&gt;" style="text;html=1;align=center;verticalAlign=middle;resizable=0;points=[];autosize=1;strokeColor=none;fillColor=none;" parent="1" vertex="1">
                    <mxGeometry x="1710.5" y="830" width="70" height="30" as="geometry"/>
                </mxCell>
                <mxCell id="554" value="" style="endArrow=none;html=1;strokeWidth=8;fillColor=#ffe6cc;strokeColor=#d79b00;endFill=0;startSize=2;endSize=0;startArrow=classicThin;startFill=1;entryX=0.018;entryY=0.5;entryDx=0;entryDy=0;entryPerimeter=0;" parent="1" target="594" edge="1">
                    <mxGeometry width="50" height="50" relative="1" as="geometry">
                        <mxPoint x="1810" y="910" as="sourcePoint"/>
                        <mxPoint x="1950" y="910" as="targetPoint"/>
                    </mxGeometry>
                </mxCell>
                <mxCell id="555" value="" style="endArrow=classicThin;html=1;strokeWidth=8;fillColor=#ffe6cc;strokeColor=#d79b00;startArrow=none;startFill=0;endSize=0;startSize=0;endFill=1;" parent="1" edge="1">
                    <mxGeometry width="50" height="50" relative="1" as="geometry">
                        <mxPoint x="1500" y="800" as="sourcePoint"/>
                        <mxPoint x="1900" y="800" as="targetPoint"/>
                    </mxGeometry>
                </mxCell>
                <mxCell id="556" value="&lt;font face=&quot;Georgia&quot;&gt;&lt;b&gt;BIRsp&lt;/b&gt;&lt;/font&gt;" style="text;html=1;align=center;verticalAlign=middle;resizable=0;points=[];autosize=1;strokeColor=none;fillColor=none;" parent="1" vertex="1">
                    <mxGeometry x="1584" y="800" width="60" height="30" as="geometry"/>
                </mxCell>
                <mxCell id="557" value="&lt;font face=&quot;Georgia&quot;&gt;&lt;b&gt;BISnp.others&lt;/b&gt;&lt;/font&gt;" style="text;html=1;align=center;verticalAlign=middle;resizable=0;points=[];autosize=1;strokeColor=none;fillColor=none;" parent="1" vertex="1">
                    <mxGeometry x="1760" y="920" width="110" height="30" as="geometry"/>
                </mxCell>
                <mxCell id="558" value="&lt;b style=&quot;&quot;&gt;&lt;font face=&quot;Georgia&quot;&gt;BISnp.address&lt;/font&gt;&lt;/b&gt;" style="text;html=1;align=center;verticalAlign=middle;resizable=0;points=[];autosize=1;strokeColor=none;fillColor=none;" parent="1" vertex="1">
                    <mxGeometry x="1535" y="870" width="110" height="30" as="geometry"/>
                </mxCell>
                <mxCell id="559" value="" style="endArrow=none;html=1;strokeWidth=8;fillColor=#ffe6cc;strokeColor=#d79b00;endFill=0;startSize=2;endSize=0;startArrow=classicThin;startFill=1;" parent="1" edge="1">
                    <mxGeometry width="50" height="50" relative="1" as="geometry">
                        <mxPoint x="1500" y="910" as="sourcePoint"/>
                        <mxPoint x="1600" y="910.19" as="targetPoint"/>
                    </mxGeometry>
                </mxCell>
                <mxCell id="560" value="" style="endArrow=none;html=1;strokeWidth=4;rounded=0;curved=0;exitX=1.014;exitY=0.85;exitDx=0;exitDy=0;exitPerimeter=0;fillColor=#ffe6cc;strokeColor=#d79b00;" parent="1" edge="1">
                    <mxGeometry width="50" height="50" relative="1" as="geometry">
                        <mxPoint x="1771.5" y="845" as="sourcePoint"/>
                        <mxPoint x="1810" y="890" as="targetPoint"/>
                        <Array as="points">
                            <mxPoint x="1810" y="845"/>
                        </Array>
                    </mxGeometry>
                </mxCell>
                <mxCell id="561" value="&lt;b style=&quot;&quot;&gt;&lt;font face=&quot;Georgia&quot;&gt;BISnp.address&amp;nbsp;&lt;/font&gt;&lt;/b&gt;" style="text;html=1;align=center;verticalAlign=middle;resizable=0;points=[];autosize=1;strokeColor=none;fillColor=none;" parent="1" vertex="1">
                    <mxGeometry x="1760" y="870" width="120" height="30" as="geometry"/>
                </mxCell>
                <mxCell id="562" value="&lt;b style=&quot;&quot;&gt;&lt;font face=&quot;Georgia&quot;&gt;BISnp.LD_ID&lt;/font&gt;&lt;/b&gt;" style="text;html=1;align=center;verticalAlign=middle;resizable=0;points=[];autosize=1;strokeColor=none;fillColor=none;" parent="1" vertex="1">
                    <mxGeometry x="1765" y="820" width="110" height="30" as="geometry"/>
                </mxCell>
                <mxCell id="563" value="&lt;b&gt;&lt;font face=&quot;Georgia&quot;&gt;LD_ID&lt;/font&gt;&lt;/b&gt;" style="text;html=1;align=center;verticalAlign=middle;resizable=0;points=[];autosize=1;strokeColor=none;fillColor=none;" parent="1" vertex="1">
                    <mxGeometry x="1625.5" y="660" width="70" height="30" as="geometry"/>
                </mxCell>
                <mxCell id="564" value="" style="endArrow=none;html=1;strokeWidth=4;rounded=0;curved=0;fillColor=#ffe6cc;strokeColor=#d79b00;" parent="1" edge="1">
                    <mxGeometry width="50" height="50" relative="1" as="geometry">
                        <mxPoint x="1600" y="720" as="sourcePoint"/>
                        <mxPoint x="1640.5" y="680" as="targetPoint"/>
                        <Array as="points">
                            <mxPoint x="1600" y="680"/>
                        </Array>
                    </mxGeometry>
                </mxCell>
                <mxCell id="565" value="&lt;b style=&quot;&quot;&gt;&lt;font face=&quot;Georgia&quot;&gt;UIO.address&lt;/font&gt;&lt;/b&gt;" style="text;html=1;align=center;verticalAlign=middle;resizable=0;points=[];autosize=1;strokeColor=none;fillColor=none;" parent="1" vertex="1">
                    <mxGeometry x="1545.5" y="700" width="100" height="30" as="geometry"/>
                </mxCell>
                <mxCell id="566" value="&lt;b style=&quot;&quot;&gt;&lt;font face=&quot;Georgia&quot;&gt;UIO.LD_ID？&lt;/font&gt;&lt;/b&gt;" style="text;html=1;align=center;verticalAlign=middle;resizable=0;points=[];autosize=1;strokeColor=none;fillColor=none;" parent="1" vertex="1">
                    <mxGeometry x="1544" y="660" width="110" height="30" as="geometry"/>
                </mxCell>
                <mxCell id="567" value="" style="endArrow=none;html=1;strokeWidth=4;rounded=0;curved=0;fillColor=#ffe6cc;strokeColor=#d79b00;" parent="1" edge="1">
                    <mxGeometry width="50" height="50" relative="1" as="geometry">
                        <mxPoint x="1600" y="570" as="sourcePoint"/>
                        <mxPoint x="1640" y="550" as="targetPoint"/>
                        <Array as="points">
                            <mxPoint x="1600" y="550"/>
                        </Array>
                    </mxGeometry>
                </mxCell>
                <mxCell id="568" value="" style="endArrow=none;html=1;strokeWidth=4;rounded=0;curved=0;fillColor=#ffe6cc;strokeColor=#d79b00;" parent="1" edge="1">
                    <mxGeometry width="50" height="50" relative="1" as="geometry">
                        <mxPoint x="1600" y="570" as="sourcePoint"/>
                        <mxPoint x="1810" y="570" as="targetPoint"/>
                        <Array as="points">
                            <mxPoint x="1600" y="590"/>
                            <mxPoint x="1810" y="590"/>
                        </Array>
                    </mxGeometry>
                </mxCell>
                <mxCell id="569" value="&lt;b&gt;&lt;font style=&quot;font-size: 18px;&quot; face=&quot;Georgia&quot;&gt;LDDCD&lt;/font&gt;&lt;/b&gt;" style="rounded=0;whiteSpace=wrap;html=1;strokeWidth=4;fillColor=#ffe6cc;strokeColor=#d79b00;" parent="1" vertex="1">
                    <mxGeometry x="1640" y="490" width="130" height="70" as="geometry"/>
                </mxCell>
                <mxCell id="570" value="&lt;b&gt;&lt;font face=&quot;Georgia&quot;&gt;DPA&lt;/font&gt;&lt;/b&gt;" style="text;html=1;align=center;verticalAlign=middle;resizable=0;points=[];autosize=1;strokeColor=none;fillColor=none;" parent="1" vertex="1">
                    <mxGeometry x="1629" y="530" width="50" height="30" as="geometry"/>
                </mxCell>
                <mxCell id="571" value="&lt;b style=&quot;color: rgb(63, 63, 63); font-family: Georgia;&quot;&gt;MPA&lt;/b&gt;" style="text;html=1;align=center;verticalAlign=middle;resizable=0;points=[];autosize=1;strokeColor=none;fillColor=none;" parent="1" vertex="1">
                    <mxGeometry x="1730" y="530" width="50" height="30" as="geometry"/>
                </mxCell>
                <mxCell id="572" value="" style="endArrow=none;html=1;strokeWidth=4;rounded=0;curved=0;exitX=1.014;exitY=0.85;exitDx=0;exitDy=0;exitPerimeter=0;fillColor=#ffe6cc;strokeColor=#d79b00;" parent="1" source="569" edge="1">
                    <mxGeometry width="50" height="50" relative="1" as="geometry">
                        <mxPoint x="1790" y="550" as="sourcePoint"/>
                        <mxPoint x="1810" y="570" as="targetPoint"/>
                        <Array as="points">
                            <mxPoint x="1810" y="550"/>
                        </Array>
                    </mxGeometry>
                </mxCell>
                <mxCell id="573" style="edgeStyle=none;html=1;startArrow=none;startFill=0;endArrow=none;endFill=0;strokeWidth=6;fillColor=#ffe6cc;strokeColor=#d79b00;" parent="1" edge="1">
                    <mxGeometry relative="1" as="geometry">
                        <mxPoint x="1680" y="460" as="targetPoint"/>
                        <mxPoint x="1790" y="480" as="sourcePoint"/>
                        <Array as="points"/>
                    </mxGeometry>
                </mxCell>
                <mxCell id="574" value="&lt;b&gt;&lt;font face=&quot;Georgia&quot;&gt;ERROR&lt;/font&gt;&lt;/b&gt;" style="text;html=1;align=center;verticalAlign=middle;resizable=0;points=[];autosize=1;strokeColor=none;fillColor=none;" parent="1" vertex="1">
                    <mxGeometry x="1710" y="490" width="70" height="30" as="geometry"/>
                </mxCell>
                <mxCell id="575" value="" style="endArrow=classicThin;html=1;strokeWidth=8;fillColor=#ffe6cc;strokeColor=#d79b00;endFill=1;startSize=2;endSize=0;" parent="1" edge="1">
                    <mxGeometry width="50" height="50" relative="1" as="geometry">
                        <mxPoint x="1810" y="569.81" as="sourcePoint"/>
                        <mxPoint x="1960" y="570" as="targetPoint"/>
                    </mxGeometry>
                </mxCell>
                <mxCell id="576" value="" style="endArrow=none;html=1;strokeWidth=8;fillColor=#ffe6cc;strokeColor=#d79b00;startArrow=classicThin;startFill=1;endSize=0;startSize=0;" parent="1" edge="1">
                    <mxGeometry width="50" height="50" relative="1" as="geometry">
                        <mxPoint x="1500" y="460" as="sourcePoint"/>
                        <mxPoint x="1900" y="460" as="targetPoint"/>
                    </mxGeometry>
                </mxCell>
                <mxCell id="577" value="&lt;b&gt;&lt;font face=&quot;Georgia&quot;&gt;+&lt;/font&gt;&lt;/b&gt;&lt;b style=&quot;text-wrap-mode: nowrap;&quot;&gt;&lt;font face=&quot;Georgia&quot;&gt;Req/RwD&lt;/font&gt;&lt;/b&gt;" style="rounded=0;whiteSpace=wrap;html=1;" parent="1" vertex="1">
                    <mxGeometry x="1790" y="480" width="80" height="20" as="geometry"/>
                </mxCell>
                <mxCell id="578" style="edgeStyle=none;html=1;entryX=0.857;entryY=0.333;entryDx=0;entryDy=0;entryPerimeter=0;startArrow=classic;startFill=1;endArrow=none;endFill=0;strokeWidth=2;fillColor=#ffe6cc;strokeColor=#d79b00;" parent="1" source="577" target="574" edge="1">
                    <mxGeometry relative="1" as="geometry"/>
                </mxCell>
                <mxCell id="579" value="&lt;b style=&quot;color: rgb(63, 63, 63); font-family: Georgia;&quot;&gt;DRS/NDR&lt;/b&gt;" style="text;html=1;align=center;verticalAlign=middle;resizable=0;points=[];autosize=1;strokeColor=none;fillColor=none;" parent="1" vertex="1">
                    <mxGeometry x="1550" y="460" width="90" height="30" as="geometry"/>
                </mxCell>
                <mxCell id="580" value="" style="endArrow=classicThin;html=1;strokeWidth=8;fillColor=#ffe6cc;strokeColor=#d79b00;endFill=1;startSize=2;endSize=0;" parent="1" edge="1">
                    <mxGeometry width="50" height="50" relative="1" as="geometry">
                        <mxPoint x="1500" y="570" as="sourcePoint"/>
                        <mxPoint x="1599" y="570.07" as="targetPoint"/>
                    </mxGeometry>
                </mxCell>
                <mxCell id="581" value="&lt;b&gt;&lt;font face=&quot;Georgia&quot;&gt;Req/RwD&lt;/font&gt;&lt;/b&gt;&lt;font face=&quot;Georgia&quot;&gt;&lt;b&gt;.others&lt;/b&gt;&lt;/font&gt;" style="text;html=1;align=center;verticalAlign=middle;resizable=0;points=[];autosize=1;strokeColor=none;fillColor=none;" parent="1" vertex="1">
                    <mxGeometry x="1519" y="580" width="130" height="30" as="geometry"/>
                </mxCell>
                <mxCell id="582" value="&lt;b&gt;&lt;font face=&quot;Georgia&quot;&gt;Req/RwD&lt;/font&gt;&lt;/b&gt;&lt;b style=&quot;&quot;&gt;&lt;font face=&quot;Georgia&quot;&gt;.address&lt;/font&gt;&lt;/b&gt;" style="text;html=1;align=center;verticalAlign=middle;resizable=0;points=[];autosize=1;strokeColor=none;fillColor=none;" parent="1" vertex="1">
                    <mxGeometry x="1760" y="530" width="140" height="30" as="geometry"/>
                </mxCell>
                <mxCell id="583" value="&lt;b&gt;&lt;font face=&quot;Georgia&quot;&gt;LD_ID&lt;/font&gt;&lt;/b&gt;" style="text;html=1;align=center;verticalAlign=middle;resizable=0;points=[];autosize=1;strokeColor=none;fillColor=none;" parent="1" vertex="1">
                    <mxGeometry x="1625.5" y="490" width="70" height="30" as="geometry"/>
                </mxCell>
                <mxCell id="584" value="" style="endArrow=none;html=1;strokeWidth=4;rounded=0;curved=0;fillColor=#ffe6cc;strokeColor=#d79b00;" parent="1" edge="1">
                    <mxGeometry width="50" height="50" relative="1" as="geometry">
                        <mxPoint x="1600" y="550" as="sourcePoint"/>
                        <mxPoint x="1640.5" y="510" as="targetPoint"/>
                        <Array as="points">
                            <mxPoint x="1600" y="510"/>
                        </Array>
                    </mxGeometry>
                </mxCell>
                <mxCell id="585" value="&lt;b&gt;&lt;font face=&quot;Georgia&quot;&gt;Req/RwD&lt;/font&gt;&lt;/b&gt;&lt;b style=&quot;&quot;&gt;&lt;font face=&quot;Georgia&quot;&gt;.address&lt;/font&gt;&lt;/b&gt;" style="text;html=1;align=center;verticalAlign=middle;resizable=0;points=[];autosize=1;strokeColor=none;fillColor=none;" parent="1" vertex="1">
                    <mxGeometry x="1509" y="530" width="140" height="30" as="geometry"/>
                </mxCell>
                <mxCell id="586" value="&lt;b&gt;&lt;font face=&quot;Georgia&quot;&gt;Req/RwD&lt;/font&gt;&lt;/b&gt;&lt;b style=&quot;&quot;&gt;&lt;font face=&quot;Georgia&quot;&gt;.LD_ID&lt;/font&gt;&lt;/b&gt;" style="text;html=1;align=center;verticalAlign=middle;resizable=0;points=[];autosize=1;strokeColor=none;fillColor=none;" parent="1" vertex="1">
                    <mxGeometry x="1515.5" y="490" width="130" height="30" as="geometry"/>
                </mxCell>
                <mxCell id="587" value="&lt;b&gt;&lt;font face=&quot;Georgia&quot;&gt;.SPID = .LD_ID&lt;/font&gt;&lt;/b&gt;" style="rounded=0;whiteSpace=wrap;html=1;strokeWidth=4;fillColor=#ffe6cc;strokeColor=#d79b00;" parent="1" vertex="1">
                    <mxGeometry x="1958" y="560" width="110" height="190" as="geometry"/>
                </mxCell>
                <mxCell id="593" value="&lt;b style=&quot;&quot;&gt;&lt;font face=&quot;Georgia&quot;&gt;BISnp&lt;/font&gt;&lt;/b&gt;" style="text;html=1;align=center;verticalAlign=middle;resizable=0;points=[];autosize=1;strokeColor=none;fillColor=none;" parent="1" vertex="1">
                    <mxGeometry x="1895" y="920" width="60" height="30" as="geometry"/>
                </mxCell>
                <mxCell id="594" value="&lt;b&gt;&lt;font face=&quot;Georgia&quot;&gt;.LD_ID = .DPID&lt;/font&gt;&lt;/b&gt;" style="rounded=0;whiteSpace=wrap;html=1;strokeWidth=4;fillColor=#ffe6cc;strokeColor=#d79b00;" parent="1" vertex="1">
                    <mxGeometry x="1958" y="880" width="110" height="60" as="geometry"/>
                </mxCell>
                <mxCell id="595" value="&lt;b&gt;&lt;font style=&quot;font-size: 18px;&quot; face=&quot;Georgia&quot;&gt;DCOH&lt;/font&gt;&lt;/b&gt;" style="rounded=0;whiteSpace=wrap;html=1;strokeWidth=4;fillColor=#d5e8d4;strokeColor=#82b366;" parent="1" vertex="1">
                    <mxGeometry x="2161" y="460" width="60" height="460" as="geometry"/>
                </mxCell>
                <mxCell id="596" value="" style="endArrow=classicThin;html=1;strokeWidth=8;fillColor=#d5e8d4;strokeColor=#82b366;endFill=1;startSize=2;endSize=0;" parent="1" edge="1">
                    <mxGeometry width="50" height="50" relative="1" as="geometry">
                        <mxPoint x="2101" y="560" as="sourcePoint"/>
                        <mxPoint x="2161" y="560.07" as="targetPoint"/>
                    </mxGeometry>
                </mxCell>
                <mxCell id="597" value="&lt;b&gt;&lt;font face=&quot;Georgia&quot;&gt;Req/RwD&lt;/font&gt;&lt;/b&gt;" style="text;html=1;align=center;verticalAlign=middle;resizable=0;points=[];autosize=1;strokeColor=none;fillColor=none;" parent="1" vertex="1">
                    <mxGeometry x="2081" y="530" width="80" height="30" as="geometry"/>
                </mxCell>
                <mxCell id="598" value="" style="endArrow=classicThin;html=1;strokeWidth=8;fillColor=#d5e8d4;strokeColor=#82b366;endFill=1;startSize=2;endSize=0;" parent="1" edge="1">
                    <mxGeometry width="50" height="50" relative="1" as="geometry">
                        <mxPoint x="2101" y="740" as="sourcePoint"/>
                        <mxPoint x="2161" y="740.19" as="targetPoint"/>
                    </mxGeometry>
                </mxCell>
                <mxCell id="599" value="&lt;b&gt;&lt;font face=&quot;Georgia&quot;&gt;UIO&lt;/font&gt;&lt;/b&gt;" style="text;html=1;align=center;verticalAlign=middle;resizable=0;points=[];autosize=1;strokeColor=none;fillColor=none;" parent="1" vertex="1">
                    <mxGeometry x="2096" y="710" width="50" height="30" as="geometry"/>
                </mxCell>
                <mxCell id="600" value="" style="endArrow=none;html=1;strokeWidth=8;fillColor=#d5e8d4;strokeColor=#82b366;endFill=0;startSize=2;endSize=0;startArrow=classicThin;startFill=1;" parent="1" edge="1">
                    <mxGeometry width="50" height="50" relative="1" as="geometry">
                        <mxPoint x="2101" y="910" as="sourcePoint"/>
                        <mxPoint x="2161" y="910" as="targetPoint"/>
                    </mxGeometry>
                </mxCell>
                <mxCell id="601" value="&lt;b style=&quot;&quot;&gt;&lt;font face=&quot;Georgia&quot;&gt;BISnp&lt;/font&gt;&lt;/b&gt;" style="text;html=1;align=center;verticalAlign=middle;resizable=0;points=[];autosize=1;strokeColor=none;fillColor=none;" parent="1" vertex="1">
                    <mxGeometry x="2096" y="880" width="60" height="30" as="geometry"/>
                </mxCell>
                <mxCell id="602" value="" style="endArrow=none;html=1;strokeWidth=8;fillColor=#d5e8d4;strokeColor=#82b366;endFill=0;startSize=2;endSize=0;startArrow=classicThin;startFill=1;" parent="1" edge="1">
                    <mxGeometry width="50" height="50" relative="1" as="geometry">
                        <mxPoint x="2101" y="470" as="sourcePoint"/>
                        <mxPoint x="2161" y="470.19000000000005" as="targetPoint"/>
                    </mxGeometry>
                </mxCell>
                <mxCell id="603" value="" style="endArrow=classicThin;html=1;strokeWidth=8;fillColor=#d5e8d4;strokeColor=#82b366;endFill=1;startSize=2;endSize=0;" parent="1" edge="1">
                    <mxGeometry width="50" height="50" relative="1" as="geometry">
                        <mxPoint x="2101" y="799.17" as="sourcePoint"/>
                        <mxPoint x="2161" y="799.36" as="targetPoint"/>
                    </mxGeometry>
                </mxCell>
                <mxCell id="604" value="&lt;font face=&quot;Georgia&quot;&gt;&lt;b&gt;BIRsp&lt;/b&gt;&lt;/font&gt;" style="text;html=1;align=center;verticalAlign=middle;resizable=0;points=[];autosize=1;strokeColor=none;fillColor=none;" parent="1" vertex="1">
                    <mxGeometry x="2096" y="770" width="60" height="30" as="geometry"/>
                </mxCell>
                <mxCell id="605" value="&lt;b style=&quot;color: rgb(63, 63, 63); font-family: Georgia;&quot;&gt;DRS/NDR&lt;/b&gt;" style="text;html=1;align=center;verticalAlign=middle;resizable=0;points=[];autosize=1;strokeColor=none;fillColor=none;" parent="1" vertex="1">
                    <mxGeometry x="2076" y="440" width="90" height="30" as="geometry"/>
                </mxCell>
                <mxCell id="607" value="" style="endArrow=classicThin;html=1;strokeWidth=8;fillColor=#d5e8d4;strokeColor=#82b366;endFill=1;startSize=2;endSize=0;" parent="1" edge="1">
                    <mxGeometry width="50" height="50" relative="1" as="geometry">
                        <mxPoint x="2222" y="570" as="sourcePoint"/>
                        <mxPoint x="2282" y="570.07" as="targetPoint"/>
                    </mxGeometry>
                </mxCell>
                <mxCell id="608" value="" style="endArrow=classicThin;html=1;strokeWidth=8;fillColor=#d5e8d4;strokeColor=#82b366;endFill=1;startSize=2;endSize=0;" parent="1" edge="1">
                    <mxGeometry width="50" height="50" relative="1" as="geometry">
                        <mxPoint x="2222" y="640" as="sourcePoint"/>
                        <mxPoint x="2282" y="640.07" as="targetPoint"/>
                    </mxGeometry>
                </mxCell>
                <mxCell id="609" value="" style="endArrow=none;html=1;strokeWidth=8;fillColor=#d5e8d4;strokeColor=#82b366;endFill=0;startSize=2;endSize=0;startArrow=classicThin;startFill=1;" parent="1" edge="1">
                    <mxGeometry width="50" height="50" relative="1" as="geometry">
                        <mxPoint x="2222" y="760" as="sourcePoint"/>
                        <mxPoint x="2282" y="760" as="targetPoint"/>
                    </mxGeometry>
                </mxCell>
                <mxCell id="611" value="" style="endArrow=none;html=1;strokeWidth=8;fillColor=#d5e8d4;strokeColor=#82b366;endFill=0;startSize=2;endSize=0;startArrow=classicThin;startFill=1;" parent="1" edge="1">
                    <mxGeometry width="50" height="50" relative="1" as="geometry">
                        <mxPoint x="2222" y="829.5" as="sourcePoint"/>
                        <mxPoint x="2282" y="829.5" as="targetPoint"/>
                    </mxGeometry>
                </mxCell>
                <mxCell id="612" value="&lt;font face=&quot;Georgia&quot;&gt;&lt;b&gt;Rd_Addr&lt;/b&gt;&lt;/font&gt;" style="text;html=1;align=center;verticalAlign=middle;resizable=0;points=[];autosize=1;strokeColor=none;fillColor=none;" parent="1" vertex="1">
                    <mxGeometry x="2211" y="540" width="80" height="30" as="geometry"/>
                </mxCell>
                <mxCell id="613" value="&lt;font face=&quot;Georgia&quot;&gt;&lt;b&gt;Rd_Data&lt;/b&gt;&lt;/font&gt;" style="text;html=1;align=center;verticalAlign=middle;resizable=0;points=[];autosize=1;strokeColor=none;fillColor=none;" parent="1" vertex="1">
                    <mxGeometry x="2211" y="730" width="80" height="30" as="geometry"/>
                </mxCell>
                <mxCell id="614" value="&lt;font face=&quot;Georgia&quot;&gt;&lt;b&gt;Wr_Data&lt;/b&gt;&lt;/font&gt;" style="text;html=1;align=center;verticalAlign=middle;resizable=0;points=[];autosize=1;strokeColor=none;fillColor=none;" parent="1" vertex="1">
                    <mxGeometry x="2211" y="610" width="80" height="30" as="geometry"/>
                </mxCell>
                <mxCell id="615" value="&lt;font face=&quot;Georgia&quot;&gt;&lt;b&gt;Wr_Rsp&lt;/b&gt;&lt;/font&gt;" style="text;html=1;align=center;verticalAlign=middle;resizable=0;points=[];autosize=1;strokeColor=none;fillColor=none;" parent="1" vertex="1">
                    <mxGeometry x="2211" y="800" width="80" height="30" as="geometry"/>
                </mxCell>
                <mxCell id="616" value="&lt;font face=&quot;Georgia&quot;&gt;&lt;span style=&quot;font-size: 18px;&quot;&gt;&lt;b&gt;Sub&lt;/b&gt;&lt;/span&gt;&lt;/font&gt;&lt;div&gt;&lt;font face=&quot;Georgia&quot;&gt;&lt;span style=&quot;font-size: 18px;&quot;&gt;&lt;b&gt;AXI&lt;/b&gt;&lt;/span&gt;&lt;/font&gt;&lt;/div&gt;" style="rounded=0;whiteSpace=wrap;html=1;strokeWidth=4;fillColor=#d5e8d4;strokeColor=#82b366;" parent="1" vertex="1">
                    <mxGeometry x="2281" y="460" width="60" height="460" as="geometry"/>
                </mxCell>
                <mxCell id="617" value="" style="endArrow=classicThin;html=1;strokeWidth=8;fillColor=#d5e8d4;strokeColor=#82b366;endFill=1;startSize=2;endSize=0;" parent="1" edge="1">
                    <mxGeometry width="50" height="50" relative="1" as="geometry">
                        <mxPoint x="2342" y="569.89" as="sourcePoint"/>
                        <mxPoint x="2402" y="569.96" as="targetPoint"/>
                    </mxGeometry>
                </mxCell>
                <mxCell id="618" value="" style="endArrow=classicThin;html=1;strokeWidth=8;fillColor=#d5e8d4;strokeColor=#82b366;endFill=1;startSize=2;endSize=0;" parent="1" edge="1">
                    <mxGeometry width="50" height="50" relative="1" as="geometry">
                        <mxPoint x="2342" y="639.89" as="sourcePoint"/>
                        <mxPoint x="2402" y="639.96" as="targetPoint"/>
                    </mxGeometry>
                </mxCell>
                <mxCell id="619" value="" style="endArrow=none;html=1;strokeWidth=8;fillColor=#d5e8d4;strokeColor=#82b366;endFill=0;startSize=2;endSize=0;startArrow=classicThin;startFill=1;" parent="1" edge="1">
                    <mxGeometry width="50" height="50" relative="1" as="geometry">
                        <mxPoint x="2342" y="759.89" as="sourcePoint"/>
                        <mxPoint x="2402" y="759.89" as="targetPoint"/>
                    </mxGeometry>
                </mxCell>
                <mxCell id="620" value="" style="endArrow=none;html=1;strokeWidth=8;fillColor=#d5e8d4;strokeColor=#82b366;endFill=0;startSize=2;endSize=0;startArrow=classicThin;startFill=1;" parent="1" edge="1">
                    <mxGeometry width="50" height="50" relative="1" as="geometry">
                        <mxPoint x="2342" y="829.39" as="sourcePoint"/>
                        <mxPoint x="2402" y="829.39" as="targetPoint"/>
                    </mxGeometry>
                </mxCell>
                <mxCell id="621" value="&lt;font face=&quot;Georgia&quot;&gt;&lt;b&gt;Rd_Addr&lt;/b&gt;&lt;/font&gt;" style="text;html=1;align=center;verticalAlign=middle;resizable=0;points=[];autosize=1;strokeColor=none;fillColor=none;" parent="1" vertex="1">
                    <mxGeometry x="2331" y="539.89" width="80" height="30" as="geometry"/>
                </mxCell>
                <mxCell id="622" value="&lt;font face=&quot;Georgia&quot;&gt;&lt;b&gt;Rd_Data&lt;/b&gt;&lt;/font&gt;" style="text;html=1;align=center;verticalAlign=middle;resizable=0;points=[];autosize=1;strokeColor=none;fillColor=none;" parent="1" vertex="1">
                    <mxGeometry x="2331" y="729.89" width="80" height="30" as="geometry"/>
                </mxCell>
                <mxCell id="623" value="&lt;font face=&quot;Georgia&quot;&gt;&lt;b&gt;Wr_Data&lt;/b&gt;&lt;/font&gt;" style="text;html=1;align=center;verticalAlign=middle;resizable=0;points=[];autosize=1;strokeColor=none;fillColor=none;" parent="1" vertex="1">
                    <mxGeometry x="2331" y="609.89" width="80" height="30" as="geometry"/>
                </mxCell>
                <mxCell id="624" value="&lt;font face=&quot;Georgia&quot;&gt;&lt;b&gt;Wr_Rsp&lt;/b&gt;&lt;/font&gt;" style="text;html=1;align=center;verticalAlign=middle;resizable=0;points=[];autosize=1;strokeColor=none;fillColor=none;" parent="1" vertex="1">
                    <mxGeometry x="2331" y="799.89" width="80" height="30" as="geometry"/>
                </mxCell>
                <mxCell id="626" style="edgeStyle=none;html=1;fillColor=#f5f5f5;strokeColor=#666666;strokeWidth=3;dashed=1;endArrow=none;endFill=0;" parent="1" source="625" edge="1">
                    <mxGeometry relative="1" as="geometry">
                        <mxPoint x="2401" y="840" as="targetPoint"/>
                    </mxGeometry>
                </mxCell>
                <mxCell id="625" value="&lt;font face=&quot;Georgia&quot;&gt;&lt;span style=&quot;font-size: 18px;&quot;&gt;&lt;b&gt;AXI&lt;/b&gt;&lt;/span&gt;&lt;/font&gt;" style="rounded=0;whiteSpace=wrap;html=1;strokeWidth=4;fillColor=#f5f5f5;strokeColor=#666666;fontColor=#333333;" parent="1" vertex="1">
                    <mxGeometry x="2311" y="330" width="179" height="70" as="geometry"/>
                </mxCell>
                <mxCell id="630" value="&lt;b&gt;&lt;font face=&quot;Georgia&quot;&gt;.SPID(6b) =&amp;nbsp;&lt;/font&gt;&lt;/b&gt;&lt;b&gt;&lt;font face=&quot;Georgia&quot;&gt;.SPID&amp;nbsp;&lt;/font&gt;&lt;/b&gt;&lt;div&gt;&lt;br&gt;&lt;/div&gt;" style="rounded=0;whiteSpace=wrap;html=1;strokeWidth=4;fillColor=#f8cecc;strokeColor=#b85450;" parent="1" vertex="1">
                    <mxGeometry x="110" y="559.89" width="130" height="200.11" as="geometry"/>
                </mxCell>
                <mxCell id="631" value="" style="endArrow=classicThin;html=1;strokeWidth=8;fillColor=#f8cecc;strokeColor=#b85450;endFill=1;startSize=2;endSize=0;entryX=0.855;entryY=0.994;entryDx=0;entryDy=0;entryPerimeter=0;" parent="1" target="632" edge="1">
                    <mxGeometry width="50" height="50" relative="1" as="geometry">
                        <mxPoint x="60" y="569.89" as="sourcePoint"/>
                        <mxPoint x="120" y="569.96" as="targetPoint"/>
                    </mxGeometry>
                </mxCell>
                <mxCell id="632" value="&lt;b&gt;&lt;font face=&quot;Georgia&quot;&gt;Req/RwD&lt;/font&gt;&lt;/b&gt;" style="text;html=1;align=center;verticalAlign=middle;resizable=0;points=[];autosize=1;strokeColor=none;fillColor=none;" parent="1" vertex="1">
                    <mxGeometry x="40" y="539.89" width="80" height="30" as="geometry"/>
                </mxCell>
                <mxCell id="633" value="" style="endArrow=classicThin;html=1;strokeWidth=8;fillColor=#f8cecc;strokeColor=#b85450;endFill=1;startSize=2;endSize=0;entryX=1.1;entryY=1.004;entryDx=0;entryDy=0;entryPerimeter=0;" parent="1" target="634" edge="1">
                    <mxGeometry width="50" height="50" relative="1" as="geometry">
                        <mxPoint x="60" y="749.89" as="sourcePoint"/>
                        <mxPoint x="120" y="750.08" as="targetPoint"/>
                    </mxGeometry>
                </mxCell>
                <mxCell id="634" value="&lt;b&gt;&lt;font face=&quot;Georgia&quot;&gt;UIO&lt;/font&gt;&lt;/b&gt;" style="text;html=1;align=center;verticalAlign=middle;resizable=0;points=[];autosize=1;strokeColor=none;fillColor=none;" parent="1" vertex="1">
                    <mxGeometry x="55" y="719.89" width="50" height="30" as="geometry"/>
                </mxCell>
                <mxCell id="635" value="" style="endArrow=none;html=1;strokeWidth=8;fillColor=#f8cecc;strokeColor=#b85450;endFill=0;startSize=2;endSize=0;startArrow=classicThin;startFill=1;" parent="1" edge="1">
                    <mxGeometry width="50" height="50" relative="1" as="geometry">
                        <mxPoint x="65" y="910" as="sourcePoint"/>
                        <mxPoint x="125" y="910" as="targetPoint"/>
                    </mxGeometry>
                </mxCell>
                <mxCell id="636" value="&lt;b style=&quot;&quot;&gt;&lt;font face=&quot;Georgia&quot;&gt;BISnp&lt;/font&gt;&lt;/b&gt;" style="text;html=1;align=center;verticalAlign=middle;resizable=0;points=[];autosize=1;strokeColor=none;fillColor=none;" parent="1" vertex="1">
                    <mxGeometry x="60" y="880" width="60" height="30" as="geometry"/>
                </mxCell>
                <mxCell id="637" value="&lt;b&gt;&lt;font face=&quot;Georgia&quot;&gt;.DPID = .DPID(6b)&lt;/font&gt;&lt;/b&gt;" style="rounded=0;whiteSpace=wrap;html=1;strokeWidth=4;fillColor=#f8cecc;strokeColor=#b85450;" parent="1" vertex="1">
                    <mxGeometry x="110" y="880" width="125" height="60" as="geometry"/>
                </mxCell>
                <mxCell id="639" value="&lt;b&gt;&lt;font face=&quot;Georgia&quot;&gt;Req/RwD&lt;/font&gt;&lt;/b&gt;" style="text;html=1;align=center;verticalAlign=middle;resizable=0;points=[];autosize=1;strokeColor=none;fillColor=none;" parent="1" vertex="1">
                    <mxGeometry x="1878" y="579.89" width="80" height="30" as="geometry"/>
                </mxCell>
                <mxCell id="640" value="&lt;font face=&quot;Georgia&quot;&gt;&lt;b&gt;UIO&lt;/b&gt;&lt;/font&gt;" style="text;html=1;align=center;verticalAlign=middle;resizable=0;points=[];autosize=1;strokeColor=none;fillColor=none;" parent="1" vertex="1">
                    <mxGeometry x="1900" y="750" width="50" height="30" as="geometry"/>
                </mxCell>
                <mxCell id="641" value="&lt;font face=&quot;Georgia&quot;&gt;&lt;span style=&quot;font-size: 18px;&quot;&gt;&lt;b&gt;???&lt;/b&gt;&lt;/span&gt;&lt;/font&gt;" style="rounded=0;whiteSpace=wrap;html=1;strokeWidth=4;fillColor=#f5f5f5;strokeColor=#666666;fontColor=#333333;" parent="1" vertex="1">
                    <mxGeometry x="150" y="410" width="50" height="20" as="geometry"/>
                </mxCell>
                <mxCell id="642" style="edgeStyle=none;html=1;fontSize=17;strokeWidth=3;fillColor=#f5f5f5;strokeColor=#666666;dashed=1;" parent="1" edge="1">
                    <mxGeometry relative="1" as="geometry">
                        <mxPoint x="175" y="560" as="targetPoint"/>
                        <mxPoint x="175" y="440" as="sourcePoint"/>
                    </mxGeometry>
                </mxCell>
                <mxCell id="644" value="&lt;div style=&quot;color: rgb(212, 212, 212); font-family: Consolas, 微软雅黑, monospace, Consolas, &amp;quot;Courier New&amp;quot;, monospace; font-size: 14px; line-height: 21px; white-space: pre;&quot;&gt;&lt;span&gt;&lt;b&gt;mapper_bitag&lt;/b&gt;&lt;/span&gt;&lt;/div&gt;" style="rounded=0;whiteSpace=wrap;html=1;strokeWidth=4;fillColor=#d5e8d4;strokeColor=#82b366;" parent="1" vertex="1">
                    <mxGeometry x="-110" y="800" width="105" height="144.94" as="geometry"/>
                </mxCell>
                <mxCell id="645" value="&lt;b&gt;&lt;font face=&quot;Georgia&quot;&gt;BISnp.tmp=暂存一些值&lt;/font&gt;&lt;/b&gt;" style="text;html=1;align=center;verticalAlign=middle;resizable=0;points=[];autosize=1;strokeColor=none;fillColor=none;" parent="1" vertex="1">
                    <mxGeometry x="2055.5" y="910" width="160" height="30" as="geometry"/>
                </mxCell>
                <mxCell id="648" value="" style="endArrow=none;html=1;strokeWidth=8;fillColor=#d5e8d4;strokeColor=#82b366;endFill=0;startSize=2;endSize=0;startArrow=classicThin;startFill=1;" parent="1" edge="1">
                    <mxGeometry width="50" height="50" relative="1" as="geometry">
                        <mxPoint y="910" as="sourcePoint"/>
                        <mxPoint x="45" y="910" as="targetPoint"/>
                    </mxGeometry>
                </mxCell>
                <mxCell id="649" value="&lt;b style=&quot;&quot;&gt;&lt;font face=&quot;Georgia&quot;&gt;BISnp&lt;/font&gt;&lt;/b&gt;" style="text;html=1;align=center;verticalAlign=middle;resizable=0;points=[];autosize=1;strokeColor=none;fillColor=none;" parent="1" vertex="1">
                    <mxGeometry x="-5" y="880" width="60" height="30" as="geometry"/>
                </mxCell>
                <mxCell id="650" value="&lt;font face=&quot;Georgia&quot;&gt;&lt;b&gt;BIRsp&lt;/b&gt;&lt;/font&gt;" style="text;html=1;align=center;verticalAlign=middle;resizable=0;points=[];autosize=1;strokeColor=none;fillColor=none;" parent="1" vertex="1">
                    <mxGeometry x="-5" y="820" width="60" height="30" as="geometry"/>
                </mxCell>
                <mxCell id="651" value="" style="endArrow=classicThin;html=1;strokeWidth=8;fillColor=#d5e8d4;strokeColor=#82b366;endFill=1;startSize=2;endSize=0;entryX=1.1;entryY=1.004;entryDx=0;entryDy=0;entryPerimeter=0;" parent="1" edge="1">
                    <mxGeometry width="50" height="50" relative="1" as="geometry">
                        <mxPoint x="-5" y="849.13" as="sourcePoint"/>
                        <mxPoint x="45" y="849.24" as="targetPoint"/>
                    </mxGeometry>
                </mxCell>
                <mxCell id="657" value="&lt;b style=&quot;&quot;&gt;&lt;font face=&quot;Georgia&quot;&gt;BISnp&lt;/font&gt;&lt;/b&gt;" style="text;html=1;align=center;verticalAlign=middle;resizable=0;points=[];autosize=1;strokeColor=none;fillColor=none;" parent="1" vertex="1">
                    <mxGeometry x="-165" y="880" width="60" height="30" as="geometry"/>
                </mxCell>
                <mxCell id="658" value="&lt;font face=&quot;Georgia&quot;&gt;&lt;b&gt;BIRsp&lt;/b&gt;&lt;/font&gt;" style="text;html=1;align=center;verticalAlign=middle;resizable=0;points=[];autosize=1;strokeColor=none;fillColor=none;" parent="1" vertex="1">
                    <mxGeometry x="-165" y="820" width="60" height="30" as="geometry"/>
                </mxCell>
                <mxCell id="660" value="" style="endArrow=classicThin;html=1;strokeWidth=8;fillColor=#d5e8d4;strokeColor=#82b366;endFill=1;startSize=2;endSize=0;entryX=0.855;entryY=0.994;entryDx=0;entryDy=0;entryPerimeter=0;" parent="1" target="661" edge="1">
                    <mxGeometry width="50" height="50" relative="1" as="geometry">
                        <mxPoint x="-160" y="570" as="sourcePoint"/>
                        <mxPoint x="-100" y="570.07" as="targetPoint"/>
                    </mxGeometry>
                </mxCell>
                <mxCell id="661" value="&lt;b&gt;&lt;font face=&quot;Georgia&quot;&gt;Req/RwD&lt;/font&gt;&lt;/b&gt;" style="text;html=1;align=center;verticalAlign=middle;resizable=0;points=[];autosize=1;strokeColor=none;fillColor=none;" parent="1" vertex="1">
                    <mxGeometry x="-165" y="540" width="80" height="30" as="geometry"/>
                </mxCell>
                <mxCell id="662" value="" style="endArrow=classicThin;html=1;strokeWidth=8;fillColor=#d5e8d4;strokeColor=#82b366;endFill=1;startSize=2;endSize=0;" parent="1" edge="1">
                    <mxGeometry width="50" height="50" relative="1" as="geometry">
                        <mxPoint x="-160" y="750" as="sourcePoint"/>
                        <mxPoint x="-100" y="750" as="targetPoint"/>
                    </mxGeometry>
                </mxCell>
                <mxCell id="663" value="&lt;b&gt;&lt;font face=&quot;Georgia&quot;&gt;UIO&lt;/font&gt;&lt;/b&gt;" style="text;html=1;align=center;verticalAlign=middle;resizable=0;points=[];autosize=1;strokeColor=none;fillColor=none;" parent="1" vertex="1">
                    <mxGeometry x="-165" y="720" width="50" height="30" as="geometry"/>
                </mxCell>
                <mxCell id="665" value="" style="endArrow=classicThin;html=1;strokeWidth=8;fillColor=#d5e8d4;strokeColor=#82b366;endFill=1;startSize=2;endSize=0;entryX=1.1;entryY=1.004;entryDx=0;entryDy=0;entryPerimeter=0;" parent="1" edge="1">
                    <mxGeometry width="50" height="50" relative="1" as="geometry">
                        <mxPoint x="-160" y="850" as="sourcePoint"/>
                        <mxPoint x="-110" y="850" as="targetPoint"/>
                    </mxGeometry>
                </mxCell>
                <mxCell id="666" value="" style="endArrow=classicThin;html=1;strokeWidth=8;fillColor=#d5e8d4;strokeColor=#82b366;endFill=1;startSize=2;endSize=0;" parent="1" edge="1">
                    <mxGeometry width="50" height="50" relative="1" as="geometry">
                        <mxPoint x="-110" y="910" as="sourcePoint"/>
                        <mxPoint x="-160" y="910" as="targetPoint"/>
                    </mxGeometry>
                </mxCell>
                <mxCell id="667" value="" style="endArrow=classicThin;html=1;strokeWidth=8;fillColor=#d5e8d4;strokeColor=#82b366;endFill=1;startSize=2;endSize=0;exitX=0.929;exitY=1;exitDx=0;exitDy=0;exitPerimeter=0;" parent="1" source="668" edge="1">
                    <mxGeometry width="50" height="50" relative="1" as="geometry">
                        <mxPoint x="-110" y="630" as="sourcePoint"/>
                        <mxPoint x="-160" y="630" as="targetPoint"/>
                    </mxGeometry>
                </mxCell>
                <mxCell id="668" value="&lt;font face=&quot;Georgia&quot;&gt;&lt;b&gt;UIORSP&lt;/b&gt;&lt;/font&gt;" style="text;html=1;align=center;verticalAlign=middle;resizable=0;points=[];autosize=1;strokeColor=none;fillColor=none;" parent="1" vertex="1">
                    <mxGeometry x="-165" y="600" width="70" height="30" as="geometry"/>
                </mxCell>
                <mxCell id="671" value="" style="endArrow=classicThin;html=1;strokeWidth=8;fillColor=#d5e8d4;strokeColor=#82b366;endFill=1;startSize=2;endSize=0;exitX=0.776;exitY=1.01;exitDx=0;exitDy=0;exitPerimeter=0;" parent="1" source="673" edge="1">
                    <mxGeometry width="50" height="50" relative="1" as="geometry">
                        <mxPoint x="-110" y="460" as="sourcePoint"/>
                        <mxPoint x="-160" y="460" as="targetPoint"/>
                    </mxGeometry>
                </mxCell>
                <mxCell id="673" value="&lt;font face=&quot;Georgia&quot;&gt;&lt;b&gt;DRS/NDR&lt;/b&gt;&lt;/font&gt;" style="text;html=1;align=center;verticalAlign=middle;resizable=0;points=[];autosize=1;strokeColor=none;fillColor=none;" parent="1" vertex="1">
                    <mxGeometry x="-170" y="430" width="90" height="30" as="geometry"/>
                </mxCell>
                <mxCell id="674" style="edgeStyle=none;html=1;fillColor=#f5f5f5;strokeColor=#666666;strokeWidth=3;dashed=1;endArrow=none;endFill=0;" parent="1" source="675" edge="1">
                    <mxGeometry relative="1" as="geometry">
                        <mxPoint x="-160" y="920" as="targetPoint"/>
                    </mxGeometry>
                </mxCell>
                <mxCell id="675" value="&lt;font face=&quot;Georgia&quot;&gt;&lt;span style=&quot;font-size: 18px;&quot;&gt;&lt;b&gt;UIO，CXL&lt;/b&gt;&lt;/span&gt;&lt;/font&gt;" style="rounded=0;whiteSpace=wrap;html=1;strokeWidth=4;fillColor=#f5f5f5;strokeColor=#666666;fontColor=#333333;" parent="1" vertex="1">
                    <mxGeometry x="-240" y="330" width="160" height="70" as="geometry"/>
                </mxCell>
            </root>
        </mxGraphModel>
    </diagram>
</mxfile>